#N canvas 827 239 527 327 12;
#X obj 1081 274 notein;
#X obj 780 939 dac~;
#X obj 1081 437 pack f f f;
#X obj 1081 327 pack f f;
#X obj 1081 385 poly 4;
#X obj 740 601 *~ 0.25;
#N canvas 0 50 450 300 oscillator1 0;
#X obj 845 438 route 1 2 3 4, f 39;
#X obj 588 368 inlet;
#X obj 845 369 inlet;
#X obj 1007 545 inlet;
#X obj 1007 579 tgl 25 0 empty empty empty 17 7 0 10 #191919 #e1e1e1 #e1e1e1 0 1;
#X obj 1162 305 inlet;
#X obj 1162 374 - 0.5;
#X obj 1162 406 * 2;
#X obj 1162 438 * 12;
#X obj 1261 435 inlet;
#X obj 1261 545 line~;
#X obj 1045 819 outlet~;
#X obj 1045 771 *~;
#X msg 1261 504 \$1 10;
#X obj 636 368 inlet;
#X obj 564 632 voice;
#X obj 636 413 - 0.5;
#X obj 636 452 * 2;
#X obj 800 632 voice;
#X obj 1005 632 voice;
#X obj 1221 632 voice;
#X obj 636 484 * 24;
#X obj 735 299 inlet;
#X obj 773 402 * 5000;
#X obj 1362 585 inlet~;
#X obj 1443 585 inlet;
#X obj 1525 585 inlet;
#X obj 1607 591 inlet;
#X connect 0 0 15 1;
#X connect 0 1 18 1;
#X connect 0 2 19 1;
#X connect 0 3 20 1;
#X connect 1 0 15 0;
#X connect 1 0 19 0;
#X connect 1 0 20 0;
#X connect 1 0 18 0;
#X connect 2 0 0 0;
#X connect 3 0 4 0;
#X connect 4 0 15 2;
#X connect 4 0 19 2;
#X connect 4 0 20 2;
#X connect 4 0 18 2;
#X connect 5 0 6 0;
#X connect 6 0 7 0;
#X connect 7 0 8 0;
#X connect 8 0 15 4;
#X connect 8 0 19 4;
#X connect 8 0 20 4;
#X connect 8 0 18 3;
#X connect 8 0 18 4;
#X connect 9 0 13 0;
#X connect 10 0 12 1;
#X connect 12 0 11 0;
#X connect 13 0 10 0;
#X connect 14 0 16 0;
#X connect 15 0 12 0;
#X connect 16 0 17 0;
#X connect 17 0 21 0;
#X connect 18 0 12 0;
#X connect 19 0 12 0;
#X connect 20 0 12 0;
#X connect 21 0 15 3;
#X connect 21 0 19 3;
#X connect 21 0 20 3;
#X connect 21 0 18 3;
#X connect 22 0 23 0;
#X connect 23 0 15 5;
#X connect 23 0 19 5;
#X connect 23 0 20 5;
#X connect 23 0 18 5;
#X connect 24 0 15 6;
#X connect 24 0 19 6;
#X connect 24 0 20 6;
#X connect 24 0 18 6;
#X connect 25 0 15 7;
#X connect 25 0 19 7;
#X connect 25 0 20 7;
#X connect 25 0 18 7;
#X connect 26 0 15 8;
#X connect 26 0 19 8;
#X connect 26 0 20 8;
#X connect 26 0 18 8;
#X connect 27 0 15 9;
#X connect 27 0 19 9;
#X connect 27 0 20 9;
#X connect 27 0 18 9;
#X restore 740 478 pd oscillator1;
#X obj 740 386 bng 25 250 50 0 empty empty Shape 0 -10 0 10 #191919 #e1e1e1 #e1e1e1;
#X obj 808 386 bng 25 250 50 0 empty empty Oct 0 -10 0 10 #191919 #e1e1e1 #e1e1e1;
#X obj 740 544 *~ 0.5;
#X obj 828 314 hsl 128 17 0.04 4 1 0 empty empty Detune -2 -8 0 10 #191919 #e1e1e1 #e1e1e1 0 1;
#X obj 844 346 hsl 128 17 0 1 0 0 empty empty Volume -2 -8 0 10 #191919 #e1e1e1 #e1e1e1 0 1;
#X obj 289 145 s phase_init;
#X msg 290 113 0;
#X obj 289 79 loadbang;
#X obj 572 324 hsl 128 17 0 1 0 0 empty empty Volume -2 -8 0 10 #191919 #e1e1e1 #e1e1e1 0 1;
#X obj 569 402 line~;
#X msg 569 361 \$1 10;
#X obj 569 456 *~ 0.33;
#X obj 385 499 lop~;
#X obj 400 326 hsl 128 17 0.01 1 1 0 empty empty Color -2 -8 0 10 #191919 #e1e1e1 #e1e1e1 0 1;
#X obj 397 434 + 20;
#X obj 397 380 * 22100;
#X obj 760 206 hsl 128 17 0 1 0 0 empty empty Pitch\ Env\ Init -2 -8 0 10 #191919 #e1e1e1 #e1e1e1 0 1;
#X obj 777 284 hsl 128 17 0 1 0 0 empty empty Time -2 -8 0 10 #191919 #e1e1e1 #e1e1e1 0 1;
#X text 127 51 arrumar implementaçao do voice (ALIASING DO PHASOR);
#X obj 1029 186 loadbang;
#X msg 1031 230 1;
#X obj 497 132 osc~;
#X obj 497 174 -~ 0.5;
#X obj 497 219 *~ 2;
#X obj 497 267 s~ LFO;
#X obj 861 427 r~ LFO;
#X obj 500 61 hsl 128 17 0 1 0 0 empty empty LFO\ Freq -2 -8 0 10 #191919 #e1e1e1 #e1e1e1 0 1;
#X obj 497 100 * 30;
#X obj 883 386 hsl 128 17 0 1 0 0 empty empty LFO_Amount -2 -8 0 10 #191919 #e1e1e1 #e1e1e1 0 1;
#X obj 660 59 hsl 128 17 0 1 0 0 empty empty Attack -2 -8 0 10 #191919 #e1e1e1 #e1e1e1 0 1;
#X obj 660 134 hsl 128 17 0 1 0 0 empty empty Release -2 -8 0 10 #191919 #e1e1e1 #e1e1e1 0 1;
#X obj 654 92 s attack;
#X obj 654 163 s release;
#X obj 919 427 r attack;
#X obj 989 427 r release;
#N canvas 0 50 450 300 oscillator1 0;
#X obj 845 438 route 1 2 3 4, f 39;
#X obj 588 368 inlet;
#X obj 845 369 inlet;
#X obj 1007 545 inlet;
#X obj 1007 579 tgl 25 0 empty empty empty 17 7 0 10 #191919 #e1e1e1 #e1e1e1 0 1;
#X obj 1162 305 inlet;
#X obj 1162 374 - 0.5;
#X obj 1162 406 * 2;
#X obj 1162 438 * 12;
#X obj 1261 435 inlet;
#X obj 1261 545 line~;
#X obj 1045 819 outlet~;
#X obj 1045 771 *~;
#X msg 1261 504 \$1 10;
#X obj 636 368 inlet;
#X obj 605 632 voice;
#X obj 636 413 - 0.5;
#X obj 636 452 * 2;
#X obj 800 632 voice;
#X obj 1005 632 voice;
#X obj 1221 632 voice;
#X obj 636 484 * 24;
#X obj 735 299 inlet;
#X obj 773 402 * 5000;
#X obj 1362 585 inlet~;
#X obj 1443 585 inlet;
#X obj 1525 585 inlet;
#X obj 1618 585 inlet;
#X connect 0 0 15 1;
#X connect 0 1 18 1;
#X connect 0 2 19 1;
#X connect 0 3 20 1;
#X connect 1 0 20 0;
#X connect 1 0 18 0;
#X connect 1 0 19 0;
#X connect 1 0 15 0;
#X connect 2 0 0 0;
#X connect 3 0 4 0;
#X connect 4 0 20 2;
#X connect 4 0 18 2;
#X connect 4 0 19 2;
#X connect 4 0 15 2;
#X connect 5 0 6 0;
#X connect 6 0 7 0;
#X connect 7 0 8 0;
#X connect 8 0 20 4;
#X connect 8 0 18 3;
#X connect 8 0 18 4;
#X connect 8 0 19 4;
#X connect 8 0 15 4;
#X connect 9 0 13 0;
#X connect 10 0 12 1;
#X connect 12 0 11 0;
#X connect 13 0 10 0;
#X connect 14 0 16 0;
#X connect 15 0 12 0;
#X connect 16 0 17 0;
#X connect 17 0 21 0;
#X connect 18 0 12 0;
#X connect 19 0 12 0;
#X connect 20 0 12 0;
#X connect 21 0 20 3;
#X connect 21 0 18 3;
#X connect 21 0 19 3;
#X connect 21 0 15 3;
#X connect 22 0 23 0;
#X connect 23 0 20 5;
#X connect 23 0 18 5;
#X connect 23 0 19 5;
#X connect 23 0 15 5;
#X connect 24 0 20 6;
#X connect 24 0 18 6;
#X connect 24 0 19 6;
#X connect 24 0 15 6;
#X connect 25 0 20 7;
#X connect 25 0 18 7;
#X connect 25 0 19 7;
#X connect 25 0 15 7;
#X connect 26 0 20 8;
#X connect 26 0 19 8;
#X connect 26 0 18 8;
#X connect 26 0 15 8;
#X connect 27 0 20 9;
#X connect 27 0 19 9;
#X connect 27 0 18 9;
#X connect 27 0 15 9;
#X restore 1187 456 pd oscillator1;
#X obj 1187 364 bng 25 250 50 0 empty empty Shape 0 -10 0 10 #191919 #e1e1e1 #e1e1e1;
#X obj 1255 364 bng 25 250 50 0 empty empty Oct 0 -10 0 10 #191919 #e1e1e1 #e1e1e1;
#X obj 1278 292 hsl 128 17 0.04 4 1 0 empty empty Detune -2 -8 0 10 #191919 #e1e1e1 #e1e1e1 0 1;
#X obj 1291 324 hsl 128 17 0 1 0 0 empty empty Volume -2 -8 0 10 #191919 #e1e1e1 #e1e1e1 0 1;
#X obj 1210 186 hsl 128 17 0 1 0 0 empty empty Pitch\ Env\ Init -2 -8 0 10 #191919 #e1e1e1 #e1e1e1 0 1;
#X obj 1224 262 hsl 128 17 0 1 0 0 empty empty Time -2 -8 0 10 #191919 #e1e1e1 #e1e1e1 0 1;
#X obj 1308 405 r~ LFO;
#X obj 1327 364 hsl 128 17 0 1 0 0 empty empty LFO_Amount -2 -8 0 10 #191919 #e1e1e1 #e1e1e1 0 1;
#X obj 1366 405 r attack;
#X obj 1436 405 r release;
#X msg 964 108 0.5;
#X obj 637 570 *~;
#X obj 339 471 noise~;
#X obj 524 542 *~;
#X obj 524 674 env~;
#X obj 450 612 line~;
#X obj 518 715 / 100;
#X msg 450 751 \$1 50;
#X obj 780 770 vcf~;
#X floatatom 999 599 8 0 0 0 - - - 0;
#X floatatom 1068 657 5 0 0 0 - - - 0;
#X obj 999 630 sig~ 200;
#X obj 1017 529 hsl 128 17 0 1 0 0 empty empty LFO\ Amount -2 -8 0 10 #191919 #e1e1e1 #e1e1e1 0 1;
#X obj 833 529 r~ LFO;
#X obj 902 657 +~;
#X obj 848 619 *~ 0;
#X obj 848 572 *~ 15000;
#X obj 841 715 +~;
#X obj 654 657 *~ 15000;
#X obj 667 761 *~;
#X obj 615 842 hsl 128 17 0.01 1 1 0 empty empty Env\ Amount -2 -8 0 10 #191919 #e1e1e1 #e1e1e1 0 1;
#X floatatom 640 891 5 0 0 0 - - - 12;
#X obj 1091 572 hsl 128 17 30 15000 0 0 empty empty Cutoff -2 -8 0 10 #191919 #e1e1e1 #e1e1e1 0 1;
#X obj 1119 619 hsl 128 17 1 20 0 0 empty empty Resonance -2 -8 0 10 #191919 #e1e1e1 #e1e1e1 0 1;
#X obj 919 842 *~ 0.8;
#X obj 1138 770 delwrite~ main 2000;
#X obj 902 809 delread4~ main 2000;
#X obj 960 754 line~;
#X obj 960 726 pack f 50;
#X obj 1202 674 hsl 128 17 0.01 1 1 0 empty empty Delay\ Time -2 -8 0 10 #191919 #e1e1e1 #e1e1e1 0 1;
#X obj 1126 844 hsl 128 17 0 1 0 0 empty empty Feedback -2 -8 0 10 #191919 #e1e1e1 #e1e1e1 0 1;
#X obj 1348 729 * 500;
#X obj 1330 809 hsl 128 17 0 1 0 0 empty empty LFO\ Amount -2 -8 0 10 #191919 #e1e1e1 #e1e1e1 0 1;
#X obj 1330 844 hsl 128 17 0.01 1 1 0 empty empty Env\ Amount -2 -8 0 10 #191919 #e1e1e1 #e1e1e1 0 1;
#X obj 1330 880 hsl 128 17 0.01 1 1 0 empty empty Mix -2 -8 0 10 #191919 #e1e1e1 #e1e1e1 0 1;
#X obj 795 868 osc~ 440;
#X connect 0 0 3 0;
#X connect 0 1 3 1;
#X connect 2 0 6 3;
#X connect 2 0 42 3;
#X connect 3 0 4 0;
#X connect 4 0 2 0;
#X connect 4 1 2 1;
#X connect 4 2 2 2;
#X connect 5 0 61 0;
#X connect 6 0 9 0;
#X connect 7 0 6 0;
#X connect 8 0 6 4;
#X connect 9 0 5 0;
#X connect 9 0 57 0;
#X connect 10 0 6 5;
#X connect 11 0 6 6;
#X connect 13 0 12 0;
#X connect 14 0 13 0;
#X connect 15 0 17 0;
#X connect 16 0 18 0;
#X connect 17 0 16 0;
#X connect 18 0 56 1;
#X connect 19 0 56 0;
#X connect 20 0 22 0;
#X connect 21 0 19 1;
#X connect 22 0 21 0;
#X connect 23 0 6 1;
#X connect 24 0 6 2;
#X connect 26 0 27 0;
#X connect 27 0 11 0;
#X connect 27 0 46 0;
#X connect 28 0 29 0;
#X connect 29 0 30 0;
#X connect 30 0 31 0;
#X connect 32 0 6 7;
#X connect 33 0 34 0;
#X connect 34 0 28 0;
#X connect 35 0 6 8;
#X connect 36 0 38 0;
#X connect 37 0 39 0;
#X connect 40 0 6 9;
#X connect 41 0 6 10;
#X connect 42 0 9 0;
#X connect 43 0 42 0;
#X connect 44 0 42 4;
#X connect 45 0 42 5;
#X connect 46 0 42 6;
#X connect 47 0 42 1;
#X connect 48 0 42 2;
#X connect 49 0 42 7;
#X connect 50 0 42 8;
#X connect 51 0 42 9;
#X connect 52 0 42 10;
#X connect 53 0 47 0;
#X connect 53 0 23 0;
#X connect 54 0 5 0;
#X connect 55 0 19 0;
#X connect 56 0 54 0;
#X connect 57 0 59 0;
#X connect 58 0 54 1;
#X connect 58 0 71 0;
#X connect 59 0 60 0;
#X connect 60 0 58 0;
#X connect 62 0 64 0;
#X connect 63 0 61 2;
#X connect 64 0 67 1;
#X connect 65 0 68 1;
#X connect 66 0 69 0;
#X connect 67 0 70 0;
#X connect 68 0 67 0;
#X connect 69 0 68 0;
#X connect 70 0 61 1;
#X connect 71 0 72 0;
#X connect 72 0 70 1;
#X connect 73 0 72 1;
#X connect 73 0 74 0;
#X connect 75 0 62 0;
#X connect 76 0 63 0;
#X connect 77 0 78 0;
#X connect 79 0 77 0;
#X connect 80 0 79 0;
#X connect 81 0 80 0;
#X connect 82 0 84 0;
#X connect 83 0 77 1;
#X connect 84 0 81 0;
#X connect 88 0 1 0;
#X connect 88 0 1 1;
