#N canvas 827 239 527 327 12;
#X obj 791 95 notein;
#X obj 570 463 dac~;
#X obj 791 258 pack f f f;
#X obj 791 148 pack f f;
#X obj 791 206 poly 4;
#X obj 570 421 *~ 0.25;
#N canvas 0 50 450 300 oscillator1 0;
#X obj 711 443 route 1 2 3 4, f 39;
#X obj 525 374 inlet;
#X obj 711 374 inlet;
#X obj 959 533 inlet;
#X obj 959 567 tgl 25 0 empty empty empty 17 7 0 10 #191919 #e1e1e1 #e1e1e1 0 1;
#X obj 1053 381 inlet;
#N canvas 0 50 450 300 voice 0;
#X obj 761 456 osc~ 220;
#X obj 865 456 phasor~ 220;
#X obj 789 610 tgl 25 0 empty empty empty 0 -10 0 10 #191919 #e1e1e1 #e1e1e1 0 1;
#X obj 865 654 *~;
#X obj 865 496 -~ 0.5;
#X obj 865 535 *~ 0.5;
#X obj 761 654 *~;
#X obj 909 610 tgl 25 0 empty empty empty 0 -10 0 10 #191919 #e1e1e1 #e1e1e1 0 1;
#X obj 761 157 inlet;
#X obj 761 796 outlet~;
#X obj 504 339 inlet;
#X obj 761 731 *~;
#X obj 761 196 unpack f f;
#X obj 1065 614 line~;
#X msg 1065 348 \$1 50;
#X obj 1065 274 / 127;
#X obj 926 524 loadbang;
#X obj 796 274 inlet;
#X obj 796 308 * 12;
#X obj 956 274 inlet;
#X obj 844 395 r phase_init;
#X obj 649 316 line~;
#X obj 761 420 mtof~;
#X obj 761 381 +~ 0;
#X obj 761 348 +~ 0;
#X obj 667 243 pack f f;
#X obj 761 234 * 0.5;
#X msg 649 285 \$2 \, \$1 200;
#X connect 0 0 6 0;
#X connect 1 0 4 0;
#X connect 2 0 6 1;
#X connect 3 0 11 0;
#X connect 4 0 5 0;
#X connect 5 0 3 0;
#X connect 6 0 11 0;
#X connect 7 0 3 1;
#X connect 8 0 12 0;
#X connect 10 0 2 0;
#X connect 10 0 7 0;
#X connect 11 0 9 0;
#X connect 12 0 25 0;
#X connect 12 0 26 0;
#X connect 12 1 15 0;
#X connect 13 0 11 1;
#X connect 14 0 13 0;
#X connect 15 0 14 0;
#X connect 16 0 7 0;
#X connect 17 0 18 0;
#X connect 18 0 24 1;
#X connect 19 0 23 1;
#X connect 20 0 1 1;
#X connect 20 0 0 1;
#X connect 21 0 24 0;
#X connect 22 0 0 0;
#X connect 22 0 1 0;
#X connect 23 0 22 0;
#X connect 24 0 23 0;
#X connect 25 0 27 0;
#X connect 26 0 25 1;
#X connect 27 0 21 0;
#X restore 655 643 pd voice;
#X obj 1053 450 - 0.5;
#X obj 1053 482 * 2;
#X obj 1053 514 * 12;
#X obj 1162 457 inlet;
#X obj 1162 567 line~;
#X obj 825 825 outlet~;
#X obj 825 777 *~;
#X msg 1162 526 \$1 10;
#X obj 618 374 inlet;
#N canvas 0 50 450 300 voice 0;
#X obj 761 456 osc~ 220;
#X obj 865 456 phasor~ 220;
#X obj 789 610 tgl 25 0 empty empty empty 0 -10 0 10 #191919 #e1e1e1 #e1e1e1 0 1;
#X obj 865 654 *~;
#X obj 865 496 -~ 0.5;
#X obj 865 535 *~ 0.5;
#X obj 761 654 *~;
#X obj 909 610 tgl 25 0 empty empty empty 0 -10 0 10 #191919 #e1e1e1 #e1e1e1 0 1;
#X obj 761 157 inlet;
#X obj 761 796 outlet~;
#X obj 504 339 inlet;
#X obj 761 731 *~;
#X obj 761 196 unpack f f;
#X obj 1065 614 line~;
#X msg 1065 348 \$1 50;
#X obj 1065 274 / 127;
#X obj 926 524 loadbang;
#X obj 796 274 inlet;
#X obj 796 308 * 12;
#X obj 956 274 inlet;
#X obj 844 395 r phase_init;
#X obj 649 316 line~;
#X obj 761 420 mtof~;
#X obj 761 381 +~ 0;
#X obj 761 348 +~ 0;
#X obj 667 243 pack f f;
#X obj 761 234 * 0.5;
#X msg 649 285 \$2 \, \$1 200;
#X connect 0 0 6 0;
#X connect 1 0 4 0;
#X connect 2 0 6 1;
#X connect 3 0 11 0;
#X connect 4 0 5 0;
#X connect 5 0 3 0;
#X connect 6 0 11 0;
#X connect 7 0 3 1;
#X connect 8 0 12 0;
#X connect 10 0 2 0;
#X connect 10 0 7 0;
#X connect 11 0 9 0;
#X connect 12 0 25 0;
#X connect 12 0 26 0;
#X connect 12 1 15 0;
#X connect 13 0 11 1;
#X connect 14 0 13 0;
#X connect 15 0 14 0;
#X connect 16 0 7 0;
#X connect 17 0 18 0;
#X connect 18 0 24 1;
#X connect 19 0 23 1;
#X connect 20 0 1 1;
#X connect 20 0 0 1;
#X connect 21 0 24 0;
#X connect 22 0 0 0;
#X connect 22 0 1 0;
#X connect 23 0 22 0;
#X connect 24 0 23 0;
#X connect 25 0 27 0;
#X connect 26 0 25 1;
#X connect 27 0 21 0;
#X restore 755 643 pd voice;
#N canvas 0 50 450 300 voice 0;
#X obj 761 456 osc~ 220;
#X obj 865 456 phasor~ 220;
#X obj 789 610 tgl 25 0 empty empty empty 0 -10 0 10 #191919 #e1e1e1 #e1e1e1 0 1;
#X obj 865 654 *~;
#X obj 865 496 -~ 0.5;
#X obj 865 535 *~ 0.5;
#X obj 761 654 *~;
#X obj 909 610 tgl 25 0 empty empty empty 0 -10 0 10 #191919 #e1e1e1 #e1e1e1 0 1;
#X obj 761 157 inlet;
#X obj 761 796 outlet~;
#X obj 504 339 inlet;
#X obj 761 731 *~;
#X obj 761 196 unpack f f;
#X obj 1065 614 line~;
#X msg 1065 348 \$1 50;
#X obj 1065 274 / 127;
#X obj 926 524 loadbang;
#X obj 796 274 inlet;
#X obj 796 308 * 12;
#X obj 956 274 inlet;
#X obj 844 395 r phase_init;
#X obj 649 316 line~;
#X obj 761 420 mtof~;
#X obj 761 381 +~ 0;
#X obj 761 348 +~ 0;
#X obj 667 243 pack f f;
#X obj 761 234 * 0.5;
#X msg 649 285 \$2 \, \$1 200;
#X connect 0 0 6 0;
#X connect 1 0 4 0;
#X connect 2 0 6 1;
#X connect 3 0 11 0;
#X connect 4 0 5 0;
#X connect 5 0 3 0;
#X connect 6 0 11 0;
#X connect 7 0 3 1;
#X connect 8 0 12 0;
#X connect 10 0 2 0;
#X connect 10 0 7 0;
#X connect 11 0 9 0;
#X connect 12 0 25 0;
#X connect 12 0 26 0;
#X connect 12 1 15 0;
#X connect 13 0 11 1;
#X connect 14 0 13 0;
#X connect 15 0 14 0;
#X connect 16 0 7 0;
#X connect 17 0 18 0;
#X connect 18 0 24 1;
#X connect 19 0 23 1;
#X connect 20 0 1 1;
#X connect 20 0 0 1;
#X connect 21 0 24 0;
#X connect 22 0 0 0;
#X connect 22 0 1 0;
#X connect 23 0 22 0;
#X connect 24 0 23 0;
#X connect 25 0 27 0;
#X connect 26 0 25 1;
#X connect 27 0 21 0;
#X restore 855 643 pd voice;
#N canvas 0 50 450 300 voice 0;
#X obj 761 456 osc~ 220;
#X obj 865 456 phasor~ 220;
#X obj 789 610 tgl 25 0 empty empty empty 0 -10 0 10 #191919 #e1e1e1 #e1e1e1 0 1;
#X obj 865 654 *~;
#X obj 865 496 -~ 0.5;
#X obj 865 535 *~ 0.5;
#X obj 761 654 *~;
#X obj 909 610 tgl 25 0 empty empty empty 0 -10 0 10 #191919 #e1e1e1 #e1e1e1 0 1;
#X obj 761 157 inlet;
#X obj 761 796 outlet~;
#X obj 504 339 inlet;
#X obj 761 731 *~;
#X obj 761 196 unpack f f;
#X obj 1065 614 line~;
#X msg 1065 348 \$1 50;
#X obj 1065 274 / 127;
#X obj 926 524 loadbang;
#X obj 796 274 inlet;
#X obj 796 308 * 12;
#X obj 956 274 inlet;
#X obj 844 395 r phase_init;
#X obj 649 316 line~;
#X obj 761 420 mtof~;
#X obj 761 381 +~ 0;
#X obj 761 348 +~ 0;
#X obj 667 243 pack f f;
#X obj 761 234 * 0.5;
#X msg 649 285 \$2 \, \$1 200;
#X connect 0 0 6 0;
#X connect 1 0 4 0;
#X connect 2 0 6 1;
#X connect 3 0 11 0;
#X connect 4 0 5 0;
#X connect 5 0 3 0;
#X connect 6 0 11 0;
#X connect 7 0 3 1;
#X connect 8 0 12 0;
#X connect 10 0 2 0;
#X connect 10 0 7 0;
#X connect 11 0 9 0;
#X connect 12 0 25 0;
#X connect 12 0 26 0;
#X connect 12 1 15 0;
#X connect 13 0 11 1;
#X connect 14 0 13 0;
#X connect 15 0 14 0;
#X connect 16 0 7 0;
#X connect 17 0 18 0;
#X connect 18 0 24 1;
#X connect 19 0 23 1;
#X connect 20 0 1 1;
#X connect 20 0 0 1;
#X connect 21 0 24 0;
#X connect 22 0 0 0;
#X connect 22 0 1 0;
#X connect 23 0 22 0;
#X connect 24 0 23 0;
#X connect 25 0 27 0;
#X connect 26 0 25 1;
#X connect 27 0 21 0;
#X restore 955 643 pd voice;
#X connect 0 0 6 1;
#X connect 0 1 16 1;
#X connect 0 2 17 1;
#X connect 0 3 18 1;
#X connect 1 0 6 0;
#X connect 1 0 16 0;
#X connect 1 0 17 0;
#X connect 1 0 18 0;
#X connect 2 0 0 0;
#X connect 3 0 4 0;
#X connect 4 0 6 2;
#X connect 4 0 16 2;
#X connect 4 0 17 2;
#X connect 4 0 18 2;
#X connect 5 0 7 0;
#X connect 6 0 13 0;
#X connect 7 0 8 0;
#X connect 8 0 9 0;
#X connect 9 0 6 3;
#X connect 9 0 16 3;
#X connect 9 0 17 3;
#X connect 9 0 18 3;
#X connect 10 0 14 0;
#X connect 11 0 13 1;
#X connect 13 0 12 0;
#X connect 14 0 11 0;
#X connect 16 0 13 0;
#X connect 17 0 13 0;
#X connect 18 0 13 0;
#X restore 570 298 pd oscillator1;
#X obj 570 206 bng 25 250 50 0 empty empty Shape 0 -10 0 10 #191919 #e1e1e1 #e1e1e1;
#X obj 602 206 bng 25 250 50 0 empty empty Oct 0 -10 0 10 #191919 #e1e1e1 #e1e1e1;
#X obj 570 364 *~ 0.5;
#X obj 621 150 hsl 128 17 0 1 0 0 empty empty Detune -2 -8 0 10 #191919 #e1e1e1 #e1e1e1 0 1;
#X obj 641 206 hsl 128 17 0 1 0 0 empty empty Volume -2 -8 0 10 #191919 #e1e1e1 #e1e1e1 0 1;
#X obj 200 364 s phase_init;
#X msg 201 332 0;
#X obj 200 298 loadbang;
#X obj 184 134 noise~;
#X obj 456 134 hsl 128 17 0 1 0 0 empty empty Volume -2 -8 0 10 #191919 #e1e1e1 #e1e1e1 0 1;
#X obj 450 205 line~;
#X msg 450 164 \$1 10;
#X obj 437 295 *~;
#X obj 437 347 *~ 0.33;
#X obj 184 205 lop~;
#X obj 282 39 hsl 128 17 0.01 1 1 0 empty empty Color -2 -8 0 10 #191919 #e1e1e1 #e1e1e1 0 1;
#X obj 279 147 + 20;
#X obj 279 93 * 22100;
#X text 256 190 arrumar noise (noteout) \; criar envelope global;
#N canvas 0 50 450 300 oscillator1 0;
#X obj 711 443 route 1 2 3 4, f 39;
#X obj 525 374 inlet;
#X obj 711 374 inlet;
#X obj 959 533 inlet;
#X obj 959 567 tgl 25 0 empty empty empty 17 7 0 10 #191919 #e1e1e1 #e1e1e1 0 1;
#X obj 1053 381 inlet;
#N canvas 0 50 450 300 voice 0;
#X obj 761 456 osc~ 220;
#X obj 865 456 phasor~ 220;
#X obj 789 610 tgl 25 0 empty empty empty 0 -10 0 10 #191919 #e1e1e1 #e1e1e1 0 1;
#X obj 865 654 *~;
#X obj 865 496 -~ 0.5;
#X obj 865 535 *~ 0.5;
#X obj 761 654 *~;
#X obj 909 610 tgl 25 0 empty empty empty 0 -10 0 10 #191919 #e1e1e1 #e1e1e1 0 1;
#X obj 761 157 inlet;
#X obj 761 796 outlet~;
#X obj 504 339 inlet;
#X obj 761 731 *~;
#X obj 761 196 unpack f f;
#X obj 1065 614 line~;
#X msg 1065 348 \$1 50;
#X obj 1065 274 / 127;
#X obj 926 524 loadbang;
#X obj 796 274 inlet;
#X obj 796 308 * 12;
#X obj 956 274 inlet;
#X obj 844 395 r phase_init;
#X obj 649 316 line~;
#X obj 761 420 mtof~;
#X obj 761 381 +~ 0;
#X obj 761 348 +~ 0;
#X obj 667 243 pack f f;
#X obj 761 234 * 0.5;
#X msg 649 285 \$2 \, \$1 200;
#X connect 0 0 6 0;
#X connect 1 0 4 0;
#X connect 2 0 6 1;
#X connect 3 0 11 0;
#X connect 4 0 5 0;
#X connect 5 0 3 0;
#X connect 6 0 11 0;
#X connect 7 0 3 1;
#X connect 8 0 12 0;
#X connect 10 0 2 0;
#X connect 10 0 7 0;
#X connect 11 0 9 0;
#X connect 12 0 25 0;
#X connect 12 0 26 0;
#X connect 12 1 15 0;
#X connect 13 0 11 1;
#X connect 14 0 13 0;
#X connect 15 0 14 0;
#X connect 16 0 7 0;
#X connect 17 0 18 0;
#X connect 18 0 24 1;
#X connect 19 0 23 1;
#X connect 20 0 1 1;
#X connect 20 0 0 1;
#X connect 21 0 24 0;
#X connect 22 0 0 0;
#X connect 22 0 1 0;
#X connect 23 0 22 0;
#X connect 24 0 23 0;
#X connect 25 0 27 0;
#X connect 26 0 25 1;
#X connect 27 0 21 0;
#X restore 655 643 pd voice;
#X obj 1053 450 - 0.5;
#X obj 1053 482 * 2;
#X obj 1053 514 * 12;
#X obj 1162 457 inlet;
#X obj 1162 567 line~;
#X obj 825 825 outlet~;
#X obj 825 777 *~;
#X msg 1162 526 \$1 10;
#X obj 618 374 inlet;
#N canvas 0 50 450 300 voice 0;
#X obj 761 456 osc~ 220;
#X obj 865 456 phasor~ 220;
#X obj 789 610 tgl 25 0 empty empty empty 0 -10 0 10 #191919 #e1e1e1 #e1e1e1 0 1;
#X obj 865 654 *~;
#X obj 865 496 -~ 0.5;
#X obj 865 535 *~ 0.5;
#X obj 761 654 *~;
#X obj 909 610 tgl 25 0 empty empty empty 0 -10 0 10 #191919 #e1e1e1 #e1e1e1 0 1;
#X obj 761 157 inlet;
#X obj 761 796 outlet~;
#X obj 504 339 inlet;
#X obj 761 731 *~;
#X obj 761 196 unpack f f;
#X obj 1065 614 line~;
#X msg 1065 348 \$1 50;
#X obj 1065 274 / 127;
#X obj 926 524 loadbang;
#X obj 796 274 inlet;
#X obj 796 308 * 12;
#X obj 956 274 inlet;
#X obj 844 395 r phase_init;
#X obj 649 316 line~;
#X obj 761 420 mtof~;
#X obj 761 381 +~ 0;
#X obj 761 348 +~ 0;
#X obj 667 243 pack f f;
#X obj 761 234 * 0.5;
#X msg 649 285 \$2 \, \$1 200;
#X connect 0 0 6 0;
#X connect 1 0 4 0;
#X connect 2 0 6 1;
#X connect 3 0 11 0;
#X connect 4 0 5 0;
#X connect 5 0 3 0;
#X connect 6 0 11 0;
#X connect 7 0 3 1;
#X connect 8 0 12 0;
#X connect 10 0 2 0;
#X connect 10 0 7 0;
#X connect 11 0 9 0;
#X connect 12 0 25 0;
#X connect 12 0 26 0;
#X connect 12 1 15 0;
#X connect 13 0 11 1;
#X connect 14 0 13 0;
#X connect 15 0 14 0;
#X connect 16 0 7 0;
#X connect 17 0 18 0;
#X connect 18 0 24 1;
#X connect 19 0 23 1;
#X connect 20 0 1 1;
#X connect 20 0 0 1;
#X connect 21 0 24 0;
#X connect 22 0 0 0;
#X connect 22 0 1 0;
#X connect 23 0 22 0;
#X connect 24 0 23 0;
#X connect 25 0 27 0;
#X connect 26 0 25 1;
#X connect 27 0 21 0;
#X restore 755 643 pd voice;
#N canvas 0 50 450 300 voice 0;
#X obj 761 456 osc~ 220;
#X obj 865 456 phasor~ 220;
#X obj 789 610 tgl 25 0 empty empty empty 0 -10 0 10 #191919 #e1e1e1 #e1e1e1 0 1;
#X obj 865 654 *~;
#X obj 865 496 -~ 0.5;
#X obj 865 535 *~ 0.5;
#X obj 761 654 *~;
#X obj 909 610 tgl 25 0 empty empty empty 0 -10 0 10 #191919 #e1e1e1 #e1e1e1 0 1;
#X obj 761 157 inlet;
#X obj 761 796 outlet~;
#X obj 504 339 inlet;
#X obj 761 731 *~;
#X obj 761 196 unpack f f;
#X obj 1065 614 line~;
#X msg 1065 348 \$1 50;
#X obj 1065 274 / 127;
#X obj 926 524 loadbang;
#X obj 796 274 inlet;
#X obj 796 308 * 12;
#X obj 956 274 inlet;
#X obj 844 395 r phase_init;
#X obj 649 316 line~;
#X obj 761 420 mtof~;
#X obj 761 381 +~ 0;
#X obj 761 348 +~ 0;
#X obj 667 243 pack f f;
#X obj 761 234 * 0.5;
#X msg 649 285 \$2 \, \$1 200;
#X connect 0 0 6 0;
#X connect 1 0 4 0;
#X connect 2 0 6 1;
#X connect 3 0 11 0;
#X connect 4 0 5 0;
#X connect 5 0 3 0;
#X connect 6 0 11 0;
#X connect 7 0 3 1;
#X connect 8 0 12 0;
#X connect 10 0 2 0;
#X connect 10 0 7 0;
#X connect 11 0 9 0;
#X connect 12 0 25 0;
#X connect 12 0 26 0;
#X connect 12 1 15 0;
#X connect 13 0 11 1;
#X connect 14 0 13 0;
#X connect 15 0 14 0;
#X connect 16 0 7 0;
#X connect 17 0 18 0;
#X connect 18 0 24 1;
#X connect 19 0 23 1;
#X connect 20 0 1 1;
#X connect 20 0 0 1;
#X connect 21 0 24 0;
#X connect 22 0 0 0;
#X connect 22 0 1 0;
#X connect 23 0 22 0;
#X connect 24 0 23 0;
#X connect 25 0 27 0;
#X connect 26 0 25 1;
#X connect 27 0 21 0;
#X restore 855 643 pd voice;
#N canvas 0 50 450 300 voice 0;
#X obj 761 456 osc~ 220;
#X obj 865 456 phasor~ 220;
#X obj 789 610 tgl 25 0 empty empty empty 0 -10 0 10 #191919 #e1e1e1 #e1e1e1 0 1;
#X obj 865 654 *~;
#X obj 865 496 -~ 0.5;
#X obj 865 535 *~ 0.5;
#X obj 761 654 *~;
#X obj 909 610 tgl 25 0 empty empty empty 0 -10 0 10 #191919 #e1e1e1 #e1e1e1 0 1;
#X obj 761 157 inlet;
#X obj 761 796 outlet~;
#X obj 504 339 inlet;
#X obj 761 731 *~;
#X obj 761 196 unpack f f;
#X obj 1065 614 line~;
#X msg 1065 348 \$1 50;
#X obj 1065 274 / 127;
#X obj 926 524 loadbang;
#X obj 796 274 inlet;
#X obj 796 308 * 12;
#X obj 956 274 inlet;
#X obj 844 395 r phase_init;
#X obj 649 316 line~;
#X obj 761 420 mtof~;
#X obj 761 381 +~ 0;
#X obj 761 348 +~ 0;
#X obj 667 243 pack f f;
#X obj 761 234 * 0.5;
#X msg 649 285 \$2 \, \$1 200;
#X connect 0 0 6 0;
#X connect 1 0 4 0;
#X connect 2 0 6 1;
#X connect 3 0 11 0;
#X connect 4 0 5 0;
#X connect 5 0 3 0;
#X connect 6 0 11 0;
#X connect 7 0 3 1;
#X connect 8 0 12 0;
#X connect 10 0 2 0;
#X connect 10 0 7 0;
#X connect 11 0 9 0;
#X connect 12 0 25 0;
#X connect 12 0 26 0;
#X connect 12 1 15 0;
#X connect 13 0 11 1;
#X connect 14 0 13 0;
#X connect 15 0 14 0;
#X connect 16 0 7 0;
#X connect 17 0 18 0;
#X connect 18 0 24 1;
#X connect 19 0 23 1;
#X connect 20 0 1 1;
#X connect 20 0 0 1;
#X connect 21 0 24 0;
#X connect 22 0 0 0;
#X connect 22 0 1 0;
#X connect 23 0 22 0;
#X connect 24 0 23 0;
#X connect 25 0 27 0;
#X connect 26 0 25 1;
#X connect 27 0 21 0;
#X restore 955 643 pd voice;
#X connect 0 0 6 1;
#X connect 0 1 16 1;
#X connect 0 2 17 1;
#X connect 0 3 18 1;
#X connect 1 0 6 0;
#X connect 1 0 16 0;
#X connect 1 0 17 0;
#X connect 1 0 18 0;
#X connect 2 0 0 0;
#X connect 3 0 4 0;
#X connect 4 0 6 2;
#X connect 4 0 16 2;
#X connect 4 0 17 2;
#X connect 4 0 18 2;
#X connect 5 0 7 0;
#X connect 6 0 13 0;
#X connect 7 0 8 0;
#X connect 8 0 9 0;
#X connect 9 0 6 3;
#X connect 9 0 16 3;
#X connect 9 0 17 3;
#X connect 9 0 18 3;
#X connect 10 0 14 0;
#X connect 11 0 13 1;
#X connect 13 0 12 0;
#X connect 14 0 11 0;
#X connect 16 0 13 0;
#X connect 17 0 13 0;
#X connect 18 0 13 0;
#X restore 918 284 pd oscillator1;
#X obj 918 192 bng 25 250 50 0 empty empty Shape 0 -10 0 10 #191919 #e1e1e1 #e1e1e1;
#X obj 950 192 bng 25 250 50 0 empty empty Oct 0 -10 0 10 #191919 #e1e1e1 #e1e1e1;
#X obj 987 134 hsl 128 17 0 1 0 0 empty empty Detune -2 -8 0 10 #191919 #e1e1e1 #e1e1e1 0 1;
#X obj 1004 192 hsl 128 17 0 1 0 0 empty empty Volume -2 -8 0 10 #191919 #e1e1e1 #e1e1e1 0 1;
#X text 455 63 implementar controle de parametros glide \; \, tempo e inicio da rampa;
#X text 50 38 Implementar LFO;
#X connect 0 0 3 0;
#X connect 0 1 3 1;
#X connect 2 0 6 2;
#X connect 2 0 26 2;
#X connect 3 0 4 0;
#X connect 4 0 2 0;
#X connect 4 1 2 1;
#X connect 4 2 2 2;
#X connect 5 0 1 0;
#X connect 5 0 1 1;
#X connect 6 0 9 0;
#X connect 7 0 6 0;
#X connect 8 0 6 3;
#X connect 9 0 5 0;
#X connect 10 0 6 4;
#X connect 11 0 6 5;
#X connect 13 0 12 0;
#X connect 14 0 13 0;
#X connect 15 0 21 0;
#X connect 16 0 18 0;
#X connect 17 0 19 1;
#X connect 18 0 17 0;
#X connect 19 0 20 0;
#X connect 20 0 5 0;
#X connect 22 0 24 0;
#X connect 23 0 21 1;
#X connect 24 0 23 0;
#X connect 26 0 9 0;
#X connect 27 0 26 0;
#X connect 28 0 26 3;
#X connect 29 0 26 4;
#X connect 30 0 26 5;
