#N canvas 827 239 734 565 12;
#X obj 2135 336 * 15000;
#X obj 1966 336 * 15000;
#X obj 2098 581 - 0.5;
#X obj 2098 620 * 2;
#X obj 2098 652 * 24;
#X obj 2201 620 * 5000;
#X obj 2201 581 pow 2;
#X obj 2098 458 r pitch_env @hv_param;
#X obj 2251 458 r time @hv_param;
#X text 2446 291 mudar forma do lfo;
#N canvas 0 50 450 300 lfo 0;
#X obj 855 243 inlet;
#X obj 855 352 osc~;
#X obj 855 394 -~ 0.5;
#X obj 855 439 *~ 2;
#X obj 855 291 * 30;
#X obj 855 479 outlet~;
#X connect 0 0 4 0;
#X connect 1 0 2 0;
#X connect 2 0 3 0;
#X connect 3 0 5 0;
#X connect 4 0 1 0;
#X restore 2326 339 pd lfo;
#X obj 1966 275 knob 50 0 1 0 0 empty empty #191919 #696969 #E1E1E1 1 0 0 0 1 270 0 0 0 empty empty 0 12 6 -15 0 1 0 0;
#X obj 2135 275 knob 50 0 1 0 0 empty empty #191919 #696969 #E1E1E1 1 0 0 0 1 270 0 0 0 empty empty 0 12 6 -15 0 1 0 0;
#X obj 2326 260 knob 50 0 1 0 0 empty empty #191919 #696969 #E1E1E1 1 0 0 0 1 270 0 0 0 empty empty 0 12 6 -15 0 1 0 0;
#X obj 2202 505 knob 50 0 1 0 0 empty empty #191919 #696969 #E1E1E1 1 0 0 0 1 270 0 0 0 empty empty 0 12 6 -15 0 1 0 0;
#X obj 2098 505 knob 50 0 1 0 0 empty empty #191919 #696969 #E1E1E1 1 0 0 0 1 270 0 0 0 empty empty 0 12 6 -15 0 1 0 0;
#X obj 1987 505 knob 50 0 1 0 0 empty empty #191919 #696969 #E1E1E1 1 0 0 0 1 270 0 0 0 empty empty 0 12 6 -15 0 1 0 0;
#X obj 2378 458 r lfo_amount @hv_param;
#X obj 2299 505 knob 50 0 1 0 0 empty empty #191919 #696969 #E1E1E1 1 0 0 0 1 270 0 0 0 empty empty 0 12 6 -15 0 1 0 0;
#X obj 1960 458 r detune @hv_param;
#X obj 1874 530 bng 25 250 50 0 empty empty empty 17 7 0 10 #191919 #e1e1e1 #e1e1e1;
#X obj 1918 530 bng 25 250 50 0 empty empty empty 17 7 0 10 #191919 #e1e1e1 #e1e1e1;
#X obj 1755 420 r waveshape @hv_param;
#X obj 1768 474 r octave @hv_param;
#X obj 2407 505 knob 50 0 1 0 0 empty empty #191919 #696969 #E1E1E1 1 0 0 0 1 270 0 0 0 empty empty 0 12 6 -15 0 1 0 0;
#X obj 2546 458 r volume @hv_param;
#X obj 1105 544 - 0.5;
#X obj 1105 583 * 2;
#X obj 1105 615 * 24;
#X obj 1208 583 * 5000;
#X obj 1208 544 pow 2;
#X obj 1209 468 knob 50 0 1 0 0 empty empty #191919 #696969 #E1E1E1 1 0 0 0 1 270 0 0 0 empty empty 0 12 6 -15 0 1 0 0;
#X obj 1105 468 knob 50 0 1 0 0 empty empty #191919 #696969 #E1E1E1 1 0 0 0 1 270 0 0 0 empty empty 0 12 6 -15 0 1 0 0;
#X obj 994 468 knob 50 0 1 0 0 empty empty #191919 #696969 #E1E1E1 1 0 0 0 1 270 0 0 0 empty empty 0 12 6 -15 0 1 0 0;
#X obj 1306 468 knob 50 0 1 0 0 empty empty #191919 #696969 #E1E1E1 1 0 0 0 1 270 0 0 0 empty empty 0 12 6 -15 0 1 0 0;
#X obj 881 493 bng 25 250 50 0 empty empty empty 17 7 0 10 #191919 #e1e1e1 #e1e1e1;
#X obj 925 493 bng 25 250 50 0 empty empty empty 17 7 0 10 #191919 #e1e1e1 #e1e1e1;
#X obj 1414 468 knob 50 0 1 0 0 empty empty #191919 #696969 #E1E1E1 1 0 0 0 1 270 0 0 0 empty empty 0 12 6 -15 0 1 0 0;
#X obj 762 383 r waveshape_2 @hv_param;
#X obj 775 437 r octave_2 @hv_param;
#X obj 946 421 r detune_2 @hv_param;
#X obj 1094 421 r pitch_env_2 @hv_param;
#X obj 1266 421 r time_2 @hv_param;
#X obj 1403 420 r lfo_amount_2 @hv_param;
#X obj 1587 420 r volume_2 @hv_param;
#X obj 1966 220 r attack @hv_param;
#X obj 2135 220 r release @hv_param;
#X obj 2326 222 r lfo_freq @hv_param;
#X obj 1751 986 synth;
#X obj 1966 367 s \$0_attack;
#X obj 2135 367 s \$0_release;
#X obj 2326 367 s~ \$0_lfo;
#X obj 1993 850 r \$0_attack;
#X obj 2011 878 r \$0_release;
#X obj 2032 910 r~ \$0_lfo;
#X obj 2111 910 notein;
#X obj 2308 864 keyboard 16 80 4 2 0 0 empty empty;
#X obj 2308 995 unpack f f;
#X connect 0 0 50 0;
#X connect 1 0 49 0;
#X connect 2 0 3 0;
#X connect 3 0 4 0;
#X connect 4 0 48 10 32.................bA...X0+++OW....V8+++uS....;
#X connect 5 0 48 11 32.................IB....v+++eh.....7+++uU....;
#X connect 6 0 5 0;
#X connect 7 0 15 0;
#X connect 8 0 14 0 32.................J.....8+++uB....P++++yA....;
#X connect 10 0 51 0;
#X connect 11 0 1 0;
#X connect 12 0 0 0;
#X connect 13 0 10 0;
#X connect 14 0 6 0;
#X connect 15 0 2 0;
#X connect 16 0 48 9 32.................CC...L6++++v....y9++++Z....;
#X connect 17 0 18 0 32.................J....H6+++uB....x9+++yA....;
#X connect 18 0 48 12 48.................pC...Dz+++u5....A8+++qN....r9+++pC....q++++qA...;
#X connect 19 0 16 0 32.................J....rA...fB....a....vA....;
#X connect 20 0 48 7 32.................FB........fg.........7Z....;
#X connect 21 0 48 8 32.................0A...X9+++ec....l+++++Z....;
#X connect 22 0 21 0 48.................S....nF...vD....pA...LA...vn....S....LJ...vV....;
#X connect 23 0 20 0 32.................O....nF...vC....pA...TB....;
#X connect 24 0 48 13 48.................1C...vn+++u8....L5+++aO...PU9+++1C...Tk++++qA...;
#X connect 25 0 24 0 32.................N....X2+++uC....18+++yA....;
#X connect 26 0 27 0;
#X connect 27 0 28 0;
#X connect 28 0 48 3 32.................ZA...nq...fV....5J....V....;
#X connect 29 0 48 4 32.................lA...Tl...fY....kI....X....;
#X connect 30 0 29 0;
#X connect 31 0 30 0;
#X connect 32 0 26 0;
#X connect 33 0 48 2 48.................mC...PH...v4....DB...XN....FC...lC...fw....0A...;
#X connect 34 0 48 5 32.................nB...Tg....p....UH...Pc....;
#X connect 35 0 48 0 32.................YD...X1...PFA...lM...Pc....;
#X connect 36 0 48 1 32.................8C...rz...P+....KM...Pc....;
#X connect 37 0 48 6 32.................cB...na...Pm....5F...Pc....;
#X connect 38 0 36 0 48.................S....nF...vD....pA...LA...vn....S....LJ...vV....;
#X connect 39 0 35 0 32.................O....nF...vC....pA...TB....;
#X connect 40 0 33 0 32.................J.....C...fB....v....vA....;
#X connect 41 0 32 0 32.................N....r....fC....K....vA....;
#X connect 42 0 31 0 32.................J....f7+++uB....H++++yA....;
#X connect 43 0 34 0 32.................K.....5++++B....f9+++2A....;
#X connect 44 0 37 0 32.................O....P0++++C....T8+++2A....;
#X connect 45 0 11 0;
#X connect 46 0 12 0;
#X connect 47 0 13 0;
#X connect 52 0 48 14 32.................+....P....vO....D....TG....;
#X connect 53 0 48 15 32.................U....P....PE....D....jE....;
#X connect 54 0 48 16;
#X connect 55 0 48 17 32.................Q....P7+++eD....D++++mC....;
#X connect 55 1 48 18 32.................c....f7+++eG....H++++mC....;
#X connect 56 0 57 0;
#X connect 57 0 48 17;
#X connect 57 1 48 18;
