#N canvas 827 239 734 565 12;
#X obj 670 800 dac~;
#X obj 419 454 hv.osc~ saw;
#X obj 419 406 sig~;
#X obj 419 368 mtof;
#X obj 419 258 notein;
#X obj 670 763 *~;
#X obj 209 53 hsl 128 17 0 1 0 0 empty empty empty -2 -8 0 10 #191919 #e1e1e1 #e1e1e1 0 1;
#X obj 209 159 hsl 128 17 0 1 0 0 empty empty empty -2 -8 0 10 #191919 #e1e1e1 #e1e1e1 0 1;
#X obj 206 116 s \$0_attack;
#X obj 206 220 s \$0_release;
#X obj 206 189 * 15000;
#X obj 206 84 * 15000;
#X obj 514 454 hv.osc~ square;
#X obj 631 454 hv.osc~ sine;
#X obj 631 689 *~;
#X obj 514 689 *~;
#X obj 419 689 *~;
#N canvas 0 50 450 300 waveselect 0;
#X obj 194 35 inlet;
#X obj 355 299 tgl 25 0 empty empty empty 17 7 0 10 #191919 #e1e1e1 #e1e1e1 0 1;
#X obj 445 299 tgl 25 0 empty empty empty 17 7 0 10 #191919 #e1e1e1 #e1e1e1 0 1;
#X obj 567 299 tgl 25 0 empty empty empty 17 7 0 10 #191919 #e1e1e1 #e1e1e1 0 1;
#X obj 194 82 bng 25 250 50 0 empty empty empty 17 7 0 10 #191919 #e1e1e1 #e1e1e1;
#X obj 194 137 f;
#X obj 242 137 + 1;
#X floatatom 194 187 5 0 0 0 - - - 12;
#X obj 355 232 select 0;
#X msg 399 266 0;
#X msg 501 266 0;
#X msg 598 266 0;
#X obj 445 224 select 1;
#X obj 567 232 select 2;
#X obj 108 137 loadbang;
#X msg 108 167 0;
#X obj 290 137 % 3;
#X obj 355 348 outlet;
#X obj 445 348 outlet;
#X obj 567 348 outlet;
#X connect 0 0 4 0;
#X connect 1 0 17 0;
#X connect 2 0 18 0;
#X connect 3 0 19 0;
#X connect 4 0 5 0;
#X connect 5 0 6 0;
#X connect 5 0 7 0;
#X connect 6 0 16 0;
#X connect 7 0 8 0 32.................A....DJ...P.....gB...rA....;
#X connect 7 0 12 0 48......................XN.........lC...D....v9....A....rO...vD....;
#X connect 7 0 13 0 32.................B....TW...f.....0E...rA....;
#X connect 8 0 1 0 32.................T..........E..........C....;
#X connect 8 1 9 0 32.................7++++q.....+++++J....7.....;
#X connect 9 0 1 0 32.................G....X8++++A....V++++6.....;
#X connect 10 0 2 0 32.................G....n7++++A....J++++6.....;
#X connect 11 0 3 0 32.................G....L9++++A....i++++6.....;
#X connect 12 0 2 0 32.................U.........PE.........fC....;
#X connect 12 1 10 0 32.................P....jA....D....Y....bA....;
#X connect 13 0 3 0 32.................M.........PC..........C....;
#X connect 13 1 11 0 32.................7++++6++++O+++++9+++++.....;
#X connect 14 0 15 0;
#X connect 15 0 7 0 32......................bE.........WA...D.....;
#X connect 16 0 5 1;
#X restore 496 598 pd waveselect;
#X obj 187 525 r waveshape @hv_param;
#X obj 449 1238 % 3;
#N canvas 0 50 450 300 envelope 0;
#X obj 474 461 inlet;
#X obj 578 461 inlet;
#X obj 518 335 / 127;
#X obj 498 581 line~;
#X msg 547 540 \$1 \$2;
#X obj 547 492 pack f f;
#X obj 518 370 route 0;
#X obj 443 492 pack f f;
#X msg 443 540 \$1 \$2;
#X obj 498 626 outlet~;
#X obj 518 285 inlet;
#X connect 0 0 7 1;
#X connect 1 0 5 1;
#X connect 2 0 6 0;
#X connect 3 0 9 0;
#X connect 4 0 3 0;
#X connect 5 0 4 0;
#X connect 6 0 7 0 32.................I....X6+++eB....19+++eF....;
#X connect 6 1 5 0;
#X connect 7 0 8 0;
#X connect 8 0 3 0;
#X connect 10 0 2 0;
#X restore 762 689 pd envelope;
#X obj 702 645 r \$0_release;
#X obj 866 645 r \$0_attack;
#X obj 97 519 bng 25 250 50 0 empty empty empty 17 7 0 10 #191919 #e1e1e1 #e1e1e1;
#X obj 485 195 tgl 25 0 empty empty empty 17 7 0 10 #191919 #e1e1e1 #e1e1e1 0 1;
#X obj 485 250 * 12;
#X obj 485 144 r octave @hv_param;
#X obj 419 159 bng 25 250 50 0 empty empty empty 17 7 0 10 #191919 #e1e1e1 #e1e1e1;
#X obj 419 333 + 0;
#X connect 1 0 16 0;
#X connect 2 0 1 0;
#X connect 2 0 12 0 32.................J....7E...fB....eA...zA....;
#X connect 2 0 13 0 32.................J....PM...fB....TC...zA....;
#X connect 3 0 2 0;
#X connect 4 0 28 0;
#X connect 4 1 20 1 32.................X....XV....F....lE...vY....;
#X connect 5 0 0 0;
#X connect 5 0 0 1;
#X connect 6 0 11 0;
#X connect 7 0 10 0;
#X connect 10 0 9 0;
#X connect 11 0 8 0;
#X connect 12 0 15 0;
#X connect 13 0 14 0;
#X connect 14 0 5 0 32.................R....bB...fD....m....bC....;
#X connect 15 0 5 0 32.................h....vI...fH....bB...bC....;
#X connect 16 0 5 0 32.................n....rO....J....6C...bC....;
#X connect 17 0 16 1 32.................i....76++++H....+9+++iD....;
#X connect 17 1 15 1 32.................r....n++++OK....5++++iD....;
#X connect 17 2 14 1 32.................r....nD....K....JA...fD....;
#X connect 18 0 17 0 32.................n....TS....J....0D...XC....;
#X connect 20 0 5 1 32.................f.....6+++OH....v9+++eC....;
#X connect 21 0 20 0 32.................M....vC...PC....7....jA....;
#X connect 22 0 20 2 32.................M....P8+++eC....T++++mA....;
#X connect 23 0 17 0 32.................n....7X....J....OF...XC....;
#X connect 24 0 25 0;
#X connect 25 0 28 1 32.................3....n7+++ON....J++++CD....;
#X connect 26 0 24 0;
#X connect 27 0 24 0 32.................F....HD...fA....BA...r.....;
#X connect 28 0 3 0;
