#N canvas 827 239 734 565 12;
#X obj 364 659 dac~;
#X obj 364 468 hv.osc~ saw;
#X obj 364 420 sig~;
#X obj 591 148 keyboard 16 80 4 2 0 0 empty empty;
#X obj 363 370 mtof;
#X obj 519 269 notein;
#X obj 364 622 *~;
#X obj 591 269 unpack f f;
#X obj 660 335 / 127;
#X obj 640 581 line~;
#X msg 689 540 \$1 \$2;
#X obj 689 492 pack f f;
#X obj 660 370 route 0;
#X obj 585 492 pack f f;
#X msg 585 540 \$1 \$2;
#X obj 207 155 hsl 128 17 0 1 0 0 empty empty empty -2 -8 0 10 #191919 #e1e1e1 #e1e1e1 0 1;
#X obj 207 261 hsl 128 17 0 1 0 0 empty empty empty -2 -8 0 10 #191919 #e1e1e1 #e1e1e1 0 1;
#X obj 204 218 s \$0_attack;
#X obj 204 322 s \$0_release;
#X obj 616 420 r \$0_release;
#X obj 720 420 r \$0_attack;
#X obj 204 291 * 15000;
#X obj 204 186 * 15000;
#X connect 1 0 6 0;
#X connect 2 0 1 0;
#X connect 3 0 7 0;
#X connect 4 0 2 0;
#X connect 5 0 4 0 32.................e....T1++++G....k8+++KE....;
#X connect 5 1 8 0 32.................b....7G....G....+A...7B....;
#X connect 6 0 0 0;
#X connect 6 0 0 1;
#X connect 7 0 4 0 32.................2....zw++++M....c7+++KE....;
#X connect 7 1 8 0 32.................R....bA...fD....W....7B....;
#X connect 8 0 12 0;
#X connect 9 0 6 1 32.................K....fu++++B....36+++aA....;
#X connect 10 0 9 0;
#X connect 11 0 10 0;
#X connect 12 0 13 0 32.................I....X6+++eB....19+++eF....;
#X connect 12 1 11 0;
#X connect 13 0 14 0;
#X connect 14 0 9 0;
#X connect 15 0 22 0;
#X connect 16 0 21 0;
#X connect 19 0 13 1;
#X connect 20 0 11 1;
#X connect 21 0 18 0;
#X connect 22 0 17 0;
