#N canvas 827 239 734 565 12;
#X obj 670 800 dac~;
#X obj 419 504 hv.osc~ saw;
#X obj 419 239 notein;
#X obj 670 763 *~;
#X obj 1013 383 hsl 128 17 0 1 0 0 empty empty empty -2 -8 0 10 #191919 #e1e1e1 #e1e1e1 0 1;
#X obj 1013 489 hsl 128 17 0 1 0 0 empty empty empty -2 -8 0 10 #191919 #e1e1e1 #e1e1e1 0 1;
#X obj 1010 446 s \$0_attack;
#X obj 1010 550 s \$0_release;
#X obj 1010 519 * 15000;
#X obj 1010 414 * 15000;
#X obj 514 504 hv.osc~ square;
#X obj 631 504 hv.osc~ sine;
#X obj 631 689 *~;
#X obj 514 689 *~;
#X obj 419 689 *~;
#N canvas 0 50 450 300 waveselect 0;
#X obj 194 35 inlet;
#X obj 355 299 tgl 25 0 empty empty empty 17 7 0 10 #191919 #e1e1e1 #e1e1e1 0 1;
#X obj 445 299 tgl 25 0 empty empty empty 17 7 0 10 #191919 #e1e1e1 #e1e1e1 0 1;
#X obj 567 299 tgl 25 0 empty empty empty 17 7 0 10 #191919 #e1e1e1 #e1e1e1 0 1;
#X obj 194 82 bng 25 250 50 0 empty empty empty 17 7 0 10 #191919 #e1e1e1 #e1e1e1;
#X obj 194 137 f;
#X obj 242 137 + 1;
#X floatatom 194 187 5 0 0 0 - - - 12;
#X obj 355 232 select 0;
#X msg 399 266 0;
#X msg 501 266 0;
#X msg 598 266 0;
#X obj 445 224 select 1;
#X obj 567 232 select 2;
#X obj 108 137 loadbang;
#X msg 108 167 0;
#X obj 290 137 % 3;
#X obj 355 348 outlet;
#X obj 445 348 outlet;
#X obj 567 348 outlet;
#X connect 0 0 4 0;
#X connect 1 0 17 0;
#X connect 2 0 18 0;
#X connect 3 0 19 0;
#X connect 4 0 5 0;
#X connect 5 0 6 0;
#X connect 5 0 7 0;
#X connect 6 0 16 0;
#X connect 7 0 8 0 32.................A....DJ...P.....gB...rA....;
#X connect 7 0 12 0 48......................XN.........lC...D....v9....A....rO...vD....;
#X connect 7 0 13 0 32.................B....TW...f.....0E...rA....;
#X connect 8 0 1 0 32.................T..........E..........C....;
#X connect 8 1 9 0 32.................7++++q.....+++++J....7.....;
#X connect 9 0 1 0 32.................G....X8++++A....V++++6.....;
#X connect 10 0 2 0 32.................G....n7++++A....J++++6.....;
#X connect 11 0 3 0 32.................G....L9++++A....i++++6.....;
#X connect 12 0 2 0 32.................U.........PE.........fC....;
#X connect 12 1 10 0 32.................P....jA....D....Y....bA....;
#X connect 13 0 3 0 32.................M.........PC..........C....;
#X connect 13 1 11 0 32.................7++++6++++O+++++9+++++.....;
#X connect 14 0 15 0;
#X connect 15 0 7 0 32......................bE.........WA...D.....;
#X connect 16 0 5 1;
#X restore 496 598 pd waveselect;
#X obj 187 525 r waveshape @hv_param;
#N canvas 0 50 450 300 envelope 0;
#X obj 474 461 inlet;
#X obj 578 461 inlet;
#X obj 518 335 / 127;
#X obj 498 581 line~;
#X msg 547 540 \$1 \$2;
#X obj 547 492 pack f f;
#X obj 518 370 route 0;
#X obj 443 492 pack f f;
#X msg 443 540 \$1 \$2;
#X obj 498 626 outlet~;
#X obj 518 285 inlet;
#X connect 0 0 7 1;
#X connect 1 0 5 1;
#X connect 2 0 6 0;
#X connect 3 0 9 0;
#X connect 4 0 3 0;
#X connect 5 0 4 0;
#X connect 6 0 7 0 32.................I....X6+++eB....19+++eF....;
#X connect 6 1 5 0;
#X connect 7 0 8 0;
#X connect 8 0 3 0;
#X connect 10 0 2 0;
#X restore 762 689 pd envelope;
#X obj 702 645 r \$0_release;
#X obj 821 645 r \$0_attack;
#X obj 97 519 bng 25 250 50 0 empty empty empty 17 7 0 10 #191919 #e1e1e1 #e1e1e1;
#X obj 485 195 tgl 25 0 empty empty empty 17 7 0 10 #191919 #e1e1e1 #e1e1e1 0 1;
#X obj 485 245 * 12;
#X obj 485 144 r octave @hv_param;
#X obj 419 159 bng 25 250 50 0 empty empty empty 17 7 0 10 #191919 #e1e1e1 #e1e1e1;
#X obj 608 227 r detune @hv_param;
#X obj 1013 598 hsl 128 17 0 1 0 0 empty empty empty -2 -8 0 10 #191919 #e1e1e1 #e1e1e1 0 1;
#X obj 485 329 * 24;
#X obj 485 362 - 12;
#X obj 1010 633 s \$0_detune;
#X obj 633 299 r \$0_detune;
#X obj 848 381 r attack @hv_param;
#X obj 848 489 r release @hv_param;
#X obj 419 464 mtof~;
#X obj 419 350 +~ 0;
#X obj 419 315 +~ 0;
#X obj 209 334 spigot;
#X obj 299 293 tgl 25 0 empty empty empty 17 7 0 10 #191919 #e1e1e1 #e1e1e1 0 1;
#X obj 209 435 line~;
#X obj 209 374 pack f f f;
#X msg 209 404 \$2 \, \$1 \$3;
#X obj 1185 559 - 0.5;
#X obj 1185 598 * 2;
#X obj 1185 630 * 24;
#X obj 1343 598 * 5000;
#X obj 1343 559 pow 2;
#X obj 1188 521 hsl 128 17 0 1 0 0 empty empty empty -2 -8 0 10 #191919 #e1e1e1 #e1e1e1 0 1;
#X obj 1346 521 hsl 128 17 0 1 0 0 empty empty empty -2 -8 0 10 #191919 #e1e1e1 #e1e1e1 0 1;
#X obj 1185 672 s \$0_pitch_env;
#X obj 1343 645 s \$0_time;
#X obj 228 159 r \$0_pitch_env;
#X obj 248 195 r \$0_time;
#X obj 148 264 + 0;
#X obj 148 219 t b f;
#X obj 1185 446 r pitch_env @hv_param;
#X obj 1343 446 r time @hv_param;
#X obj 1172 878 osc~;
#X obj 1172 920 -~ 0.5;
#X obj 1172 965 *~ 2;
#X obj 1172 817 * 30;
#X obj 1172 1013 s~ \$0_lfo;
#X obj 1274 711 r lfo_freq @hv_param;
#X obj 1094 711 hsl 128 17 0 1 0 0 empty empty empty -2 -8 0 10 #191919 #e1e1e1 #e1e1e1 0 1;
#X obj 809 807 *~ 24;
#X obj 809 859 *~ 0;
#X obj 809 768 r~ \$0_lfo;
#X obj 897 807 hsl 128 17 0 1 0 0 empty empty empty -2 -8 0 10 #191919 #e1e1e1 #e1e1e1 0 1;
#X obj 894 767 r lfo_amount @hv_param;
#X obj 419 414 +~;
#X text 1240 34 mudar forma do lfo;
#X obj 992 159 bendin, f 7;
#X obj 1067 199 / 16383;
#X floatatom 1069 240 5 0 0 0 - - - 12;
#X obj 1069 282 * 24;
#X obj 1069 315 - 12;
#X obj 983 340 line~;
#X obj 419 390 +~;
#X msg 961 290 \$1 100;
#X connect 1 0 14 0;
#X connect 2 0 36 0 48.................M....H9+++eC....h++++2....vK++++M....7x+++OS....;
#X connect 2 0 52 0;
#X connect 2 1 17 1 32.................Y....XV...PF....lE...7Z....;
#X connect 2 1 37 0 32.................U....r2+++eE....68+++OB....;
#X connect 3 0 0 0;
#X connect 3 0 0 1;
#X connect 4 0 9 0;
#X connect 5 0 8 0;
#X connect 8 0 7 0;
#X connect 9 0 6 0;
#X connect 10 0 13 0;
#X connect 11 0 12 0;
#X connect 12 0 3 0 32.................R....bB...fD....m....bC....;
#X connect 13 0 3 0 32.................h....vI...fH....bB...bC....;
#X connect 14 0 3 0 32.................n....rO....J....6C...bC....;
#X connect 15 0 14 1 32.................i....76++++H....+9+++iD....;
#X connect 15 1 13 1 32.................r....n++++OK....5++++iD....;
#X connect 15 2 12 1 32.................r....nD....K....JA...fD....;
#X connect 16 0 15 0 32.................n....TS....J....0D...XC....;
#X connect 17 0 3 1 32.................f.....6+++OH....v9+++eC....;
#X connect 18 0 17 0 32.................M....vC...PC....7....jA....;
#X connect 19 0 17 2 32.................M.........PC.........jA....;
#X connect 20 0 15 0 32.................n....7X....J....OF...XC....;
#X connect 21 0 22 0;
#X connect 22 0 35 1 32.................t....z7+++uK....M++++OC....;
#X connect 23 0 21 0;
#X connect 24 0 21 0 32.................F....HD...fA....BA...r.....;
#X connect 25 0 27 0 32.................DA...X3+++OQ....F9+++OE....;
#X connect 26 0 29 0;
#X connect 27 0 28 0;
#X connect 28 0 34 1 48......................T9+++O.....k++++K9+++ux++++h++++q7+++u3++++;
#X connect 30 0 27 0 32.................C....z1++++.....s8+++u.....;
#X connect 31 0 9 0 32.................J....HJ...fB....hB...3.....;
#X connect 32 0 8 0 32.................F....HJ...fA....hB...r.....;
#X connect 33 0 1 0;
#X connect 33 0 10 0 32......................7E.........eA...TA....;
#X connect 33 0 11 0 32.................A....PM...P.....TC...TA....;
#X connect 34 0 76 0;
#X connect 35 0 34 0;
#X connect 36 0 39 0;
#X connect 37 0 36 1 32.................L....36+++OC....99+++CA....;
#X connect 38 0 35 0;
#X connect 39 0 40 0;
#X connect 40 0 38 0;
#X connect 41 0 42 0;
#X connect 42 0 43 0;
#X connect 43 0 48 0;
#X connect 44 0 49 0;
#X connect 45 0 44 0;
#X connect 46 0 41 0;
#X connect 47 0 45 0;
#X connect 50 0 53 0;
#X connect 51 0 39 2;
#X connect 52 0 39 1;
#X connect 53 0 52 0;
#X connect 53 1 52 1;
#X connect 54 0 46 0;
#X connect 55 0 47 0;
#X connect 56 0 57 0;
#X connect 57 0 58 0;
#X connect 58 0 60 0;
#X connect 59 0 56 0;
#X connect 61 0 59 0;
#X connect 62 0 59 0;
#X connect 63 0 64 0;
#X connect 64 0 68 1;
#X connect 65 0 63 0;
#X connect 66 0 64 1;
#X connect 67 0 66 0;
#X connect 68 0 33 0;
#X connect 70 0 71 0;
#X connect 71 0 72 0;
#X connect 72 0 73 0;
#X connect 73 0 74 0;
#X connect 74 0 77 0;
#X connect 75 0 76 1;
#X connect 76 0 68 0;
#X connect 77 0 75 0;
