#N canvas 827 239 734 565 12;
#X obj 1885 853 *~;
#X obj 1966 367 s \$0_attack;
#X obj 2135 367 s \$0_release;
#X obj 2135 336 * 15000;
#X obj 1966 336 * 15000;
#N canvas 0 50 450 300 envelope 0;
#X obj 474 461 inlet;
#X obj 578 461 inlet;
#X obj 518 335 / 127;
#X obj 498 581 line~;
#X msg 547 540 \$1 \$2;
#X obj 547 492 pack f f;
#X obj 518 370 route 0;
#X obj 443 492 pack f f;
#X msg 443 540 \$1 \$2;
#X obj 498 626 outlet~;
#X obj 518 285 inlet;
#X connect 0 0 7 1;
#X connect 1 0 5 1;
#X connect 2 0 6 0;
#X connect 3 0 9 0;
#X connect 4 0 3 0;
#X connect 5 0 4 0;
#X connect 6 0 7 0 32.................I....X6+++eB....19+++eF....;
#X connect 6 1 5 0;
#X connect 7 0 8 0;
#X connect 8 0 3 0;
#X connect 10 0 2 0;
#X restore 2012 786 pd envelope;
#X obj 1954 742 r \$0_release;
#X obj 2071 742 r \$0_attack;
#X obj 1993 543 s \$0_detune;
#X obj 2104 543 - 0.5;
#X obj 2104 582 * 2;
#X obj 2104 614 * 24;
#X obj 2207 582 * 5000;
#X obj 2207 543 pow 2;
#X obj 2104 659 s \$0_pitch_env;
#X obj 2207 614 s \$0_time;
#X obj 2104 420 r pitch_env @hv_param;
#X obj 2257 420 r time @hv_param;
#X obj 2326 367 s~ \$0_lfo;
#X text 2446 291 mudar forma do lfo;
#N canvas 0 50 450 300 waves 0;
#X obj 614 337 tgl 25 0 empty empty empty 17 7 0 10 #191919 #e1e1e1 #e1e1e1 0 1;
#X obj 754 337 tgl 25 0 empty empty empty 17 7 0 10 #191919 #e1e1e1 #e1e1e1 0 1;
#X obj 901 337 tgl 25 0 empty empty empty 17 7 0 10 #191919 #e1e1e1 #e1e1e1 0 1;
#X obj 453 120 bng 25 250 50 0 empty empty empty 17 7 0 10 #191919 #e1e1e1 #e1e1e1;
#X obj 453 175 f;
#X obj 501 175 + 1;
#X floatatom 453 225 5 0 0 0 - - - 12;
#X obj 614 270 select 0;
#X msg 658 304 0;
#X msg 810 304 0;
#X msg 932 304 0;
#X obj 754 262 select 1;
#X obj 901 270 select 2;
#X obj 549 175 % 3;
#X obj 459 421 hv.osc~ saw;
#X obj 654 421 hv.osc~ square;
#X obj 796 421 hv.osc~ sine;
#X obj 796 606 *~;
#X obj 654 606 *~;
#X obj 459 606 *~;
#X obj 459 381 mtof~;
#X obj 654 699 outlet~;
#X obj 453 73 inlet wave_select;
#X obj 459 315 inlet~ pitch;
#X obj 343 73 loadbang;
#X connect 0 0 19 1 32.................WC...D2++++0....w8+++SO....;
#X connect 1 0 18 1 32.................XC...n8+++O1....Z++++SO....;
#X connect 2 0 17 1 32.................gC...T8+++e3....U++++SO....;
#X connect 3 0 4 0;
#X connect 4 0 5 0;
#X connect 4 0 6 0;
#X connect 5 0 13 0;
#X connect 6 0 7 0 32.................A....DJ...P.....gB...rA....;
#X connect 6 0 11 0 48......................XN.........lC...D....v9....A....rO...vD....;
#X connect 6 0 12 0 32.................B....TW...f.....0E...rA....;
#X connect 7 0 0 0 32.................T..........E..........C....;
#X connect 7 1 8 0 32.................7++++q.....+++++J....7.....;
#X connect 8 0 0 0 32.................G....X8++++A....V++++6.....;
#X connect 9 0 1 0 32.................G....n7++++A....J++++6.....;
#X connect 10 0 2 0 32.................G....L9++++A....i++++6.....;
#X connect 11 0 1 0 32.................U.........PE.........fC....;
#X connect 11 1 9 0 32.................P....jA....D....Y....bA....;
#X connect 12 0 2 0 32.................M.........PC..........C....;
#X connect 12 1 10 0 32.................7++++6++++O+++++9+++++.....;
#X connect 13 0 4 1;
#X connect 14 0 19 0;
#X connect 15 0 18 0;
#X connect 16 0 17 0;
#X connect 17 0 21 0 32.................f....L2+++OH....y8+++qD....;
#X connect 18 0 21 0;
#X connect 19 0 21 0 32.................i....LL...vH....CC...nD....;
#X connect 20 0 16 0 32.................A....PM...P.....TC...TA....;
#X connect 20 0 14 0;
#X connect 20 0 15 0 32......................7E.........eA...TA....;
#X connect 22 0 3 0;
#X connect 23 0 20 0;
#X connect 24 0 3 0 32.................Y....3F...PF....tA...vA....;
#X restore 1772 793 pd waves;
#N canvas 0 50 450 300 lfo 0;
#X obj 855 243 inlet;
#X obj 855 352 osc~;
#X obj 855 394 -~ 0.5;
#X obj 855 439 *~ 2;
#X obj 855 291 * 30;
#X obj 855 479 outlet~;
#X connect 0 0 4 0;
#X connect 1 0 2 0;
#X connect 2 0 3 0;
#X connect 3 0 5 0;
#X connect 4 0 1 0;
#X restore 2326 339 pd lfo;
#X obj 1966 275 knob 50 0 1 0 0 empty empty #191919 #696969 #E1E1E1 1 0 0 0 1 270 0 0 0 empty empty 0 12 6 -15 0 1 0 0;
#X obj 2135 275 knob 50 0 1 0 0 empty empty #191919 #696969 #E1E1E1 1 0 0 0 1 270 0 0 0 empty empty 0 12 6 -15 0 1 0 0;
#X obj 2326 260 knob 50 0 1 0 0 empty empty #191919 #696969 #E1E1E1 1 0 0 0 1 270 0 0 0 empty empty 0 12 6 -15 0 1 0 0;
#X obj 2208 467 knob 50 0 1 0 0 empty empty #191919 #696969 #E1E1E1 1 0 0 0 1 270 0 0 0 empty empty 0 12 6 -15 0 1 0 0;
#X obj 2104 467 knob 50 0 1 0 0 empty empty #191919 #696969 #E1E1E1 1 0 0 0 1 270 0 0 0 empty empty 0 12 6 -15 0 1 0 0;
#X obj 1993 467 knob 50 0 1 0 0 empty empty #191919 #696969 #E1E1E1 1 0 0 0 1 270 0 0 0 empty empty 0 12 6 -15 0 1 0 0;
#X obj 2384 420 r lfo_amount @hv_param;
#X obj 2305 467 knob 50 0 1 0 0 empty empty #191919 #696969 #E1E1E1 1 0 0 0 1 270 0 0 0 empty empty 0 12 6 -15 0 1 0 0;
#X obj 2305 543 s \$0_lfo_amount;
#X obj 1966 420 r detune @hv_param;
#N canvas 0 50 450 300 note_processing 0;
#X obj 558 621 outlet~;
#X obj 602 169 tgl 25 0 empty empty empty 17 7 0 10 #191919 #e1e1e1 #e1e1e1 0 1;
#X obj 602 219 * 12;
#X obj 695 214 * 24;
#X obj 695 247 - 12;
#X obj 695 180 r \$0_detune;
#X obj 558 427 +~ 0;
#X obj 558 392 +~ 0;
#X obj 389 237 spigot;
#X obj 498 168 tgl 25 0 empty empty empty 17 7 0 10 #191919 #e1e1e1 #e1e1e1 0 1;
#X obj 389 361 line~;
#X obj 389 300 pack f f f;
#X msg 389 330 \$2 \, \$1 \$3;
#X obj 287 117 r \$0_pitch_env;
#X obj 428 266 r \$0_time;
#X obj 287 237 + 0;
#X obj 287 192 t b f;
#X obj 800 462 *~ 24;
#X obj 800 514 *~ 0;
#X obj 800 423 r~ \$0_lfo;
#X obj 558 557 +~;
#X obj 800 180 bendin, f 7;
#X obj 800 217 / 16383;
#X floatatom 800 247 5 0 0 0 - - - 12;
#X obj 800 289 * 24;
#X obj 800 322 - 12;
#X obj 800 376 line~;
#X obj 558 467 +~;
#X msg 800 347 \$1 100;
#X obj 859 462 r \$0_lfo_amount;
#X obj 389 117 inlet midi_note;
#X obj 498 117 inlet midi_vel;
#X obj 602 117 inlet octave;
#X connect 1 0 2 0;
#X connect 2 0 7 1 32.................YA...L9+++eV....i++++qI....;
#X connect 3 0 4 0;
#X connect 4 0 6 1 48.................XB...z4+++Ol....c9+++eI...fg++++WB...X3+++en....;
#X connect 5 0 3 0 32.................G.........vA.........7.....;
#X connect 6 0 27 0;
#X connect 7 0 6 0;
#X connect 8 0 11 0;
#X connect 9 0 8 1 32.................i....r5++++H....q9+++yB....;
#X connect 10 0 7 0 32.................F....jJ...fA....oB...v.....;
#X connect 11 0 12 0;
#X connect 12 0 10 0;
#X connect 13 0 16 0;
#X connect 14 0 11 2;
#X connect 15 0 11 1 32.................i....jG...vH....4A...vB....;
#X connect 16 0 15 0;
#X connect 16 1 15 1;
#X connect 17 0 18 0;
#X connect 18 0 20 1 32.................K....nw++++B....Z7+++qB....;
#X connect 19 0 17 0;
#X connect 20 0 0 0;
#X connect 21 0 22 0;
#X connect 22 0 23 0;
#X connect 23 0 24 0;
#X connect 24 0 25 0;
#X connect 25 0 28 0;
#X connect 26 0 27 1 32.................+....nw++++O....Z7+++iD....;
#X connect 27 0 20 0;
#X connect 28 0 26 0;
#X connect 29 0 18 1 32.................Q....H8+++eD....R++++GB....;
#X connect 30 0 15 0 32.................SA...r4++++T....a9+++WF....;
#X connect 30 0 8 0;
#X connect 31 0 9 0;
#X connect 32 0 1 0;
#X restore 1815 744 pd note_processing;
#X obj 1851 692 notein;
#X obj 1880 492 bng 25 250 50 0 empty empty empty 17 7 0 10 #191919 #e1e1e1 #e1e1e1;
#X obj 1924 492 bng 25 250 50 0 empty empty empty 17 7 0 10 #191919 #e1e1e1 #e1e1e1;
#X obj 1761 382 r waveshape @hv_param;
#X obj 1924 582 s \$0_waveshape;
#X obj 1691 744 r \$0_waveshape;
#X obj 1774 436 r octave @hv_param;
#X obj 1829 582 s \$0_octave;
#X obj 1917 692 r \$0_octave;
#X obj 2413 467 knob 50 0 1 0 0 empty empty #191919 #696969 #E1E1E1 1 0 0 0 1 270 0 0 0 empty empty 0 12 6 -15 0 1 0 0;
#X obj 2437 543 s \$0_volume;
#X obj 2552 420 r volume @hv_param;
#X obj 1885 895 *~;
#X obj 1954 853 r \$0_volume;
#X obj 1116 481 - 0.5;
#X obj 1116 520 * 2;
#X obj 1116 552 * 24;
#X obj 1219 520 * 5000;
#X obj 1219 481 pow 2;
#X obj 1220 405 knob 50 0 1 0 0 empty empty #191919 #696969 #E1E1E1 1 0 0 0 1 270 0 0 0 empty empty 0 12 6 -15 0 1 0 0;
#X obj 1116 405 knob 50 0 1 0 0 empty empty #191919 #696969 #E1E1E1 1 0 0 0 1 270 0 0 0 empty empty 0 12 6 -15 0 1 0 0;
#X obj 1005 405 knob 50 0 1 0 0 empty empty #191919 #696969 #E1E1E1 1 0 0 0 1 270 0 0 0 empty empty 0 12 6 -15 0 1 0 0;
#X obj 1317 405 knob 50 0 1 0 0 empty empty #191919 #696969 #E1E1E1 1 0 0 0 1 270 0 0 0 empty empty 0 12 6 -15 0 1 0 0;
#X obj 892 430 bng 25 250 50 0 empty empty empty 17 7 0 10 #191919 #e1e1e1 #e1e1e1;
#X obj 936 430 bng 25 250 50 0 empty empty empty 17 7 0 10 #191919 #e1e1e1 #e1e1e1;
#X obj 1425 405 knob 50 0 1 0 0 empty empty #191919 #696969 #E1E1E1 1 0 0 0 1 270 0 0 0 empty empty 0 12 6 -15 0 1 0 0;
#X obj 773 320 r waveshape_2 @hv_param;
#X obj 786 374 r octave_2 @hv_param;
#X obj 841 520 s \$0_octave_2;
#X obj 936 520 s \$0_waveshape_2;
#X obj 957 358 r detune_2 @hv_param;
#X obj 1105 358 r pitch_env_2 @hv_param;
#X obj 1277 358 r time_2 @hv_param;
#X obj 1414 357 r lfo_amount_2 @hv_param;
#X obj 1598 357 r volume_2 @hv_param;
#X obj 1005 481 s \$0_detune_2;
#X obj 1116 597 s \$0_pitch_env_2;
#X obj 1219 552 s \$0_time_2;
#X obj 1317 481 s \$0_lfo_amount_2;
#X obj 1449 481 s \$0_volume_2;
#X obj 1394 853 *~;
#N canvas 0 50 450 300 envelope 0;
#X obj 474 461 inlet;
#X obj 578 461 inlet;
#X obj 518 335 / 127;
#X obj 498 581 line~;
#X msg 547 540 \$1 \$2;
#X obj 547 492 pack f f;
#X obj 518 370 route 0;
#X obj 443 492 pack f f;
#X msg 443 540 \$1 \$2;
#X obj 498 626 outlet~;
#X obj 518 285 inlet;
#X connect 0 0 7 1;
#X connect 1 0 5 1;
#X connect 2 0 6 0;
#X connect 3 0 9 0;
#X connect 4 0 3 0;
#X connect 5 0 4 0;
#X connect 6 0 7 0 32.................I....X6+++eB....19+++eF....;
#X connect 6 1 5 0;
#X connect 7 0 8 0;
#X connect 8 0 3 0;
#X connect 10 0 2 0;
#X restore 1521 786 pd envelope;
#N canvas 0 50 450 300 waves 0;
#X obj 614 337 tgl 25 0 empty empty empty 17 7 0 10 #191919 #e1e1e1 #e1e1e1 0 1;
#X obj 754 337 tgl 25 0 empty empty empty 17 7 0 10 #191919 #e1e1e1 #e1e1e1 0 1;
#X obj 901 337 tgl 25 0 empty empty empty 17 7 0 10 #191919 #e1e1e1 #e1e1e1 0 1;
#X obj 453 120 bng 25 250 50 0 empty empty empty 17 7 0 10 #191919 #e1e1e1 #e1e1e1;
#X obj 453 175 f;
#X obj 501 175 + 1;
#X floatatom 453 225 5 0 0 0 - - - 12;
#X obj 614 270 select 0;
#X msg 658 304 0;
#X msg 810 304 0;
#X msg 932 304 0;
#X obj 754 262 select 1;
#X obj 901 270 select 2;
#X obj 549 175 % 3;
#X obj 459 421 hv.osc~ saw;
#X obj 654 421 hv.osc~ square;
#X obj 796 421 hv.osc~ sine;
#X obj 796 606 *~;
#X obj 654 606 *~;
#X obj 459 606 *~;
#X obj 459 381 mtof~;
#X obj 654 699 outlet~;
#X obj 453 73 inlet wave_select;
#X obj 459 315 inlet~ pitch;
#X obj 343 73 loadbang;
#X connect 0 0 19 1 32.................WC...D2++++0....w8+++SO....;
#X connect 1 0 18 1 32.................XC...n8+++O1....Z++++SO....;
#X connect 2 0 17 1 32.................gC...T8+++e3....U++++SO....;
#X connect 3 0 4 0;
#X connect 4 0 5 0;
#X connect 4 0 6 0;
#X connect 5 0 13 0;
#X connect 6 0 7 0 32.................A....DJ...P.....gB...rA....;
#X connect 6 0 11 0 48......................XN.........lC...D....v9....A....rO...vD....;
#X connect 6 0 12 0 32.................B....TW...f.....0E...rA....;
#X connect 7 0 0 0 32.................T..........E..........C....;
#X connect 7 1 8 0 32.................7++++q.....+++++J....7.....;
#X connect 8 0 0 0 32.................G....X8++++A....V++++6.....;
#X connect 9 0 1 0 32.................G....n7++++A....J++++6.....;
#X connect 10 0 2 0 32.................G....L9++++A....i++++6.....;
#X connect 11 0 1 0 32.................U.........PE.........fC....;
#X connect 11 1 9 0 32.................P....jA....D....Y....bA....;
#X connect 12 0 2 0 32.................M.........PC..........C....;
#X connect 12 1 10 0 32.................7++++6++++O+++++9+++++.....;
#X connect 13 0 4 1;
#X connect 14 0 19 0;
#X connect 15 0 18 0;
#X connect 16 0 17 0;
#X connect 17 0 21 0 32.................f....L2+++OH....y8+++qD....;
#X connect 18 0 21 0;
#X connect 19 0 21 0 32.................i....LL...vH....CC...nD....;
#X connect 20 0 16 0 32.................A....PM...P.....TC...TA....;
#X connect 20 0 14 0;
#X connect 20 0 15 0 32......................7E.........eA...TA....;
#X connect 22 0 3 0;
#X connect 23 0 20 0;
#X connect 24 0 3 0 32.................Y....3F...PF....tA...vA....;
#X restore 1281 793 pd waves;
#N canvas 0 50 450 300 note_processing 0;
#X obj 558 621 outlet~;
#X obj 602 169 tgl 25 0 empty empty empty 17 7 0 10 #191919 #e1e1e1 #e1e1e1 0 1;
#X obj 602 219 * 12;
#X obj 695 214 * 24;
#X obj 695 247 - 12;
#X obj 558 427 +~ 0;
#X obj 558 392 +~ 0;
#X obj 389 237 spigot;
#X obj 498 168 tgl 25 0 empty empty empty 17 7 0 10 #191919 #e1e1e1 #e1e1e1 0 1;
#X obj 389 361 line~;
#X obj 389 300 pack f f f;
#X msg 389 330 \$2 \, \$1 \$3;
#X obj 287 237 + 0;
#X obj 287 192 t b f;
#X obj 800 462 *~ 24;
#X obj 800 514 *~ 0;
#X obj 800 423 r~ \$0_lfo;
#X obj 558 557 +~;
#X obj 800 180 bendin, f 7;
#X obj 800 217 / 16383;
#X floatatom 800 247 5 0 0 0 - - - 12;
#X obj 800 289 * 24;
#X obj 800 322 - 12;
#X obj 800 376 line~;
#X obj 558 467 +~;
#X msg 800 347 \$1 100;
#X obj 389 117 inlet midi_note;
#X obj 498 117 inlet midi_vel;
#X obj 602 117 inlet octave;
#X obj 268 117 r \$0_pitch_env_2;
#X obj 695 180 r \$0_detune_2;
#X obj 859 462 r \$0_lfo_amount_2;
#X obj 428 266 r \$0_time_2;
#X connect 1 0 2 0;
#X connect 2 0 6 1 32.................YA...L9+++eV....i++++qI....;
#X connect 3 0 4 0;
#X connect 4 0 5 1 48.................XB...z4+++Ol....c9+++eI...fg++++WB...X3+++en....;
#X connect 5 0 24 0;
#X connect 6 0 5 0;
#X connect 7 0 10 0;
#X connect 8 0 7 1 32.................i....r5++++H....q9+++yB....;
#X connect 9 0 6 0 32.................F....jJ...fA....oB...v.....;
#X connect 10 0 11 0;
#X connect 11 0 9 0;
#X connect 12 0 10 1 32.................i....jG...vH....4A...vB....;
#X connect 13 0 12 0;
#X connect 13 1 12 1;
#X connect 14 0 15 0;
#X connect 15 0 17 1 32.................K....nw++++B....Z7+++qB....;
#X connect 16 0 14 0;
#X connect 17 0 0 0;
#X connect 18 0 19 0;
#X connect 19 0 20 0;
#X connect 20 0 21 0;
#X connect 21 0 22 0;
#X connect 22 0 25 0;
#X connect 23 0 24 1 32.................+....nw++++O....Z7+++iD....;
#X connect 24 0 17 0;
#X connect 25 0 23 0;
#X connect 26 0 12 0 32.................SA...r4++++T....a9+++WF....;
#X connect 26 0 7 0;
#X connect 27 0 8 0;
#X connect 28 0 1 0;
#X connect 29 0 13 0 32.................b....LA....G....S....fC....;
#X connect 30 0 3 0 32.................G.........vA.........7.....;
#X connect 31 0 15 1 32.................Q....H8+++eD....R++++GB....;
#X connect 32 0 10 2;
#X restore 1324 744 pd note_processing;
#X obj 1360 692 notein;
#X obj 1394 895 *~;
#X obj 1426 692 r \$0_octave_2;
#X obj 1200 744 r \$0_waveshape_2;
#X obj 1463 853 r \$0_volume_2;
#X obj 1656 976 *~ 0.5;
#X obj 1656 1052 dac~;
#X obj 1656 597 unpack f f;
#X obj 1463 742 r \$0_release;
#X obj 1580 742 r \$0_attack;
#X obj 1966 220 r attack @hv_param;
#X obj 2135 220 r release @hv_param;
#X obj 2326 222 r lfo_freq @hv_param;
#X connect 0 0 45 0;
#X connect 3 0 2 0;
#X connect 4 0 1 0;
#X connect 5 0 0 1 32.................e....z3++++G....M9+++CC....;
#X connect 6 0 5 0 32.................M....nC...PC....5....jA....;
#X connect 7 0 5 2 32.................M.........PC.........jA....;
#X connect 9 0 10 0;
#X connect 10 0 11 0;
#X connect 11 0 14 0;
#X connect 12 0 15 0;
#X connect 13 0 12 0;
#X connect 16 0 26 0;
#X connect 17 0 25 0 32.................J.....8+++uB....P++++yA....;
#X connect 20 0 0 0 32.................a....DG...vF....wA...jB....;
#X connect 21 0 18 0;
#X connect 22 0 4 0;
#X connect 23 0 3 0;
#X connect 24 0 21 0;
#X connect 25 0 13 0;
#X connect 26 0 9 0;
#X connect 27 0 8 0;
#X connect 28 0 29 0 32.................J....H6+++uB....x9+++yA....;
#X connect 29 0 30 0;
#X connect 31 0 27 0 32.................J....rA...fB....a....vA....;
#X connect 32 0 20 1;
#X connect 33 0 32 0 32.................T....z8+++OE....c++++GB....;
#X connect 33 1 5 1 48.................O....PG...vC....zA...7.....r....O.....K...vR....;
#X connect 33 1 32 1 32.................P....D.....D....A....DB....;
#X connect 34 0 40 0 32.................t....37+++uK....N++++GD....;
#X connect 35 0 37 0;
#X connect 36 0 35 0 48.................S....nF...vD....pA...LA...vn....S....LJ...vV....;
#X connect 38 0 20 0 32.................T....DE....E....QA...3A....;
#X connect 39 0 34 0 32.................O....nF...vC....pA...TB....;
#X connect 41 0 32 2;
#X connect 42 0 43 0 32.................M....fA...PC....X....nA....;
#X connect 44 0 42 0 32.................N....X2+++uC....18+++yA....;
#X connect 45 0 82 0 32.................e....vw++++G....b7+++6C....;
#X connect 46 0 45 1 32.................S....b7++++D....G++++eA....;
#X connect 47 0 48 0;
#X connect 48 0 49 0;
#X connect 49 0 69 0;
#X connect 50 0 70 0;
#X connect 51 0 50 0;
#X connect 52 0 51 0;
#X connect 53 0 47 0;
#X connect 54 0 68 0;
#X connect 55 0 71 0;
#X connect 56 0 61 0 32.................t....37+++uK....N++++GD....;
#X connect 57 0 62 0;
#X connect 58 0 72 0 32.................M....fA...PC....X....nA....;
#X connect 59 0 57 0 48.................S....nF...vD....pA...LA...vn....S....LJ...vV....;
#X connect 60 0 56 0 32.................O....nF...vC....pA...TB....;
#X connect 63 0 54 0 32.................J.....C...fB....v....vA....;
#X connect 64 0 53 0 32.................N....r....fC....K....vA....;
#X connect 65 0 52 0 32.................J....f7+++uB....H++++yA....;
#X connect 66 0 55 0 32.................K.....5++++B....f9+++2A....;
#X connect 67 0 58 0 32.................O....P0++++C....T8+++2A....;
#X connect 73 0 78 0;
#X connect 74 0 73 1 32.................e....z3++++G....M9+++CC....;
#X connect 75 0 73 0 32.................a....DG...vF....wA...jB....;
#X connect 76 0 75 1;
#X connect 77 0 76 0 32.................T....z8+++OE....c++++GB....;
#X connect 77 1 76 1 32.................P....D.....D....A....DB....;
#X connect 77 1 74 1 48.................O....PG...vC....zA...7.....r....O.....K...vR....;
#X connect 78 0 82 0 32.................f....XP....H....FD...3C....;
#X connect 79 0 76 2;
#X connect 80 0 75 0 32.................T....DE....E....QA...3A....;
#X connect 81 0 78 1 32.................S....b7++++D....G++++eA....;
#X connect 82 0 83 0 32.................c.........PG.........jC....;
#X connect 82 0 83 1 32.................c.....A...PG....P....jC....;
#X connect 84 0 76 0;
#X connect 84 0 32 0;
#X connect 84 1 76 1;
#X connect 84 1 74 1;
#X connect 84 1 32 1;
#X connect 84 1 5 1;
#X connect 85 0 74 0 32.................M....nC...PC....5....jA....;
#X connect 86 0 74 2 32.................M.........PC.........jA....;
#X connect 87 0 22 0;
#X connect 88 0 23 0;
#X connect 89 0 24 0;
