#N canvas 827 239 734 565 12;
#X obj 626 507 r pitch_env @hv_param;
#X obj 797 510 r time @hv_param;
#X text 478 179 mudar forma do lfo;
#X obj 140 238 knob 50 0 1 2 0 empty empty #191919 #696969 #E1E1E1 1 0 0 0 1 270 0 0 0 empty empty 0 12 6 -15 0 1 0 0;
#X obj 299 238 knob 50 0 1 2 0 empty empty #191919 #696969 #E1E1E1 1 0 0 0 1 270 0 0 0 empty empty 0 12 6 -15 0 1 0 0;
#X obj 478 238 knob 50 0 1 2 0 empty empty #191919 #696969 #E1E1E1 1 0 0 0 1 270 0 0 0 empty empty 0 12 6 -15 0 1 0 0;
#X obj 797 538 knob 50 0 1 2 0 empty empty #191919 #696969 #E1E1E1 1 0 0 0 1 270 0 0 0 empty empty 0 12 6 -15 0 1 0 0;
#X obj 626 535 knob 50 0 1 2 0 empty empty #191919 #696969 #E1E1E1 1 0 0 0 1 270 0 0 0 empty empty 0 12 6 -15 0 1 0 0;
#X obj 478 535 knob 50 0 1 2 0 empty empty #191919 #696969 #E1E1E1 1 0 0 0 1 270 0 0 0 empty empty 0 12 6 -15 0 1 0 0;
#X obj 934 510 r lfo_amount @hv_param;
#X obj 934 538 knob 50 0 1 2 0 empty empty #191919 #696969 #E1E1E1 1 0 0 0 1 270 0 0 0 empty empty 0 12 6 -15 0 1 0 0;
#X obj 478 507 r detune @hv_param;
#X obj 137 547 bng 25 250 50 0 empty empty empty 17 7 0 10 #191919 #e1e1e1 #e1e1e1;
#X obj 299 547 bng 25 250 50 0 empty empty empty 17 7 0 10 #191919 #e1e1e1 #e1e1e1;
#X obj 299 507 r waveshape @hv_param;
#X obj 137 507 r octave @hv_param;
#X obj 1113 538 knob 50 0 1 2 0 empty empty #191919 #696969 #E1E1E1 1 0 0 0 1 270 0 0 0 empty empty 0 12 6 -15 0 1 0 0;
#X obj 1113 510 r volume @hv_param;
#X obj 797 387 knob 50 0 1 2 0 empty empty #191919 #696969 #E1E1E1 1 0 0 0 1 270 0 0 0 empty empty 0 12 6 -15 0 1 0 0;
#X obj 626 384 knob 50 0 1 2 0 empty empty #191919 #696969 #E1E1E1 1 0 0 0 1 270 0 0 0 empty empty 0 12 6 -15 0 1 0 0;
#X obj 478 384 knob 50 0 1 2 0 empty empty #191919 #696969 #E1E1E1 1 0 0 0 1 270 0 0 0 empty empty 0 12 6 -15 0 1 0 0;
#X obj 934 387 knob 50 0 1 2 0 empty empty #191919 #696969 #E1E1E1 1 0 0 0 1 270 0 0 0 empty empty 0 12 6 -15 0 1 0 0;
#X obj 137 396 bng 25 250 50 0 empty empty empty 17 7 0 10 #191919 #e1e1e1 #e1e1e1;
#X obj 299 396 bng 25 250 50 0 empty empty empty 17 7 0 10 #191919 #e1e1e1 #e1e1e1;
#X obj 1113 387 knob 50 0 1 2 0 empty empty #191919 #696969 #E1E1E1 1 0 0 0 1 270 0 0 0 empty empty 0 12 6 -15 0 1 0 0;
#X obj 299 354 r waveshape_2 @hv_param;
#X obj 137 354 r octave_2 @hv_param;
#X obj 478 354 r detune_2 @hv_param;
#X obj 626 355 r pitch_env_2 @hv_param;
#X obj 797 355 r time_2 @hv_param;
#X obj 934 355 r lfo_amount_2 @hv_param;
#X obj 1113 355 r volume_2 @hv_param;
#X obj 140 212 r attack @hv_param;
#X obj 299 207 r release @hv_param;
#X obj 478 207 r lfo_freq @hv_param;
#X obj 633 238 synth;
#X obj 797 207 notein;
#X obj 797 263 pack f f;
#X obj 633 285 dac~;
#X msg 1113 608 volume \$1;
#X msg 934 608 lfo_amount \$1;
#X msg 797 608 time \$1;
#X msg 626 605 pitch_env \$1;
#X msg 478 605 detune \$1;
#X msg 137 598 octave bang;
#X msg 299 605 waveshape bang;
#X obj 633 207 r voice_presets;
#X obj 299 478 s voice_presets;
#X obj 137 478 s voice_presets;
#X obj 478 478 s voice_presets;
#X obj 626 478 s voice_presets;
#X obj 797 481 s voice_presets;
#X obj 934 481 s voice_presets;
#X obj 1113 483 s voice_presets;
#X obj 299 637 s voice_presets;
#X obj 137 637 s voice_presets;
#X obj 478 637 s voice_presets;
#X obj 626 637 s voice_presets;
#X obj 797 640 s voice_presets;
#X obj 934 640 s voice_presets;
#X obj 1113 640 s voice_presets;
#X msg 137 455 octave2 bang;
#X msg 299 455 waveshape2 bang;
#X msg 478 447 detune2 \$1;
#X msg 626 447 pitch_env2 \$1;
#X msg 797 455 time2 \$1;
#X msg 934 451 lfo_amount2 \$1;
#X msg 1113 451 volume2 \$1;
#X obj 140 325 s voice_presets;
#X obj 299 325 s voice_presets;
#X obj 797 321 s voice_presets;
#X msg 797 291 midi_msg \$1 \$2;
#X msg 478 298 lfo_freq \$1;
#X obj 478 325 s voice_presets;
#X msg 299 298 release \$1;
#X msg 140 298 attack \$1;
#X connect 0 0 7 0;
#X connect 1 0 6 0;
#X connect 3 0 75 0;
#X connect 4 0 74 0;
#X connect 5 0 72 0;
#X connect 6 0 41 0;
#X connect 7 0 42 0;
#X connect 8 0 43 0;
#X connect 9 0 10 0 32.................J.........fB.........vA....;
#X connect 10 0 40 0;
#X connect 11 0 8 0 32.................J.........fB.........j.....;
#X connect 12 0 44 0;
#X connect 13 0 45 0;
#X connect 14 0 13 0;
#X connect 15 0 12 0;
#X connect 16 0 39 0;
#X connect 17 0 16 0 32.................N.........fC.........j.....;
#X connect 18 0 65 0;
#X connect 19 0 64 0;
#X connect 20 0 63 0;
#X connect 21 0 66 0;
#X connect 22 0 61 0;
#X connect 23 0 62 0;
#X connect 24 0 67 0;
#X connect 25 0 23 0;
#X connect 26 0 22 0;
#X connect 27 0 20 0 32.................L..........C.........r.....;
#X connect 28 0 19 0 32.................N.........fC.........n.....;
#X connect 29 0 18 0;
#X connect 30 0 21 0;
#X connect 31 0 24 0;
#X connect 32 0 3 0;
#X connect 33 0 4 0;
#X connect 34 0 5 0;
#X connect 35 0 38 0;
#X connect 35 0 38 1 32.................S.....A...vD....P....vA....;
#X connect 36 0 37 0;
#X connect 36 1 37 1 32.................O....DA...vC....Q....TB....;
#X connect 37 0 71 0;
#X connect 39 0 60 0;
#X connect 40 0 59 0 32.................M.........PC.........z.....;
#X connect 41 0 58 0 32.................M.........PC.........z.....;
#X connect 42 0 57 0 32.................M.........PC.........z.....;
#X connect 43 0 56 0;
#X connect 44 0 55 0 32.................T..........E.........PA....;
#X connect 45 0 54 0;
#X connect 46 0 35 0;
#X connect 61 0 48 0;
#X connect 62 0 47 0;
#X connect 63 0 49 0;
#X connect 64 0 50 0;
#X connect 65 0 51 0;
#X connect 66 0 52 0;
#X connect 67 0 53 0;
#X connect 71 0 70 0;
#X connect 72 0 73 0;
#X connect 74 0 69 0;
#X connect 75 0 68 0;
