#N canvas 827 239 734 565 12;
#X obj 239 897 dac~;
#X obj 239 468 hv.osc~ saw;
#X obj 239 420 sig~;
#X obj 238 370 mtof;
#X obj 519 269 notein;
#X obj 239 860 *~;
#X obj 591 269 unpack f f;
#X obj 660 335 / 127;
#X obj 640 581 line~;
#X msg 689 540 \$1 \$2;
#X obj 689 492 pack f f;
#X obj 660 370 route 0;
#X obj 585 492 pack f f;
#X msg 585 540 \$1 \$2;
#X obj 209 53 hsl 128 17 0 1 0 0 empty empty empty -2 -8 0 10 #191919 #e1e1e1 #e1e1e1 0 1;
#X obj 209 159 hsl 128 17 0 1 0 0 empty empty empty -2 -8 0 10 #191919 #e1e1e1 #e1e1e1 0 1;
#X obj 206 116 s \$0_attack;
#X obj 206 220 s \$0_release;
#X obj 616 420 r \$0_release;
#X obj 720 420 r \$0_attack;
#X obj 206 189 * 15000;
#X obj 206 84 * 15000;
#X obj 599 710 tgl 25 0 empty empty empty 0 -10 0 10 #191919 #e1e1e1 #e1e1e1 0 1;
#X obj 675 754 *~;
#X obj 571 754 *~;
#X obj 719 710 tgl 25 0 empty empty empty 0 -10 0 10 #191919 #e1e1e1 #e1e1e1 0 1;
#X obj 719 667 loadbang;
#X obj 334 468 hv.osc~ square;
#X obj 451 468 hv.osc~ sine;
#X obj 451 778 *~;
#X obj 334 778 *~;
#X obj 239 778 *~;
#X obj 269 743 tgl 25 0 empty empty empty 17 7 0 10 #191919 #e1e1e1 #e1e1e1 0 1;
#X obj 359 743 tgl 25 0 empty empty empty 17 7 0 10 #191919 #e1e1e1 #e1e1e1 0 1;
#X obj 481 743 tgl 25 0 empty empty empty 17 7 0 10 #191919 #e1e1e1 #e1e1e1 0 1;
#X text 259 505 Defaults to \; saw;
#X text 62 461 Wave selection;
#X obj 108 526 bng 25 250 50 0 empty empty empty 17 7 0 10 #191919 #e1e1e1 #e1e1e1;
#X obj 108 581 f;
#X obj 156 581 + 1;
#X obj 206 581 % 3;
#X floatatom 108 631 5 0 0 0 - - - 12;
#X obj 282 653 select 0;
#X msg 313 710 0;
#X msg 415 710 0;
#X msg 512 710 0;
#X obj 384 653 select 1;
#X obj 481 653 select 2;
#X obj 22 581 loadbang;
#X text 10 429 ENCAPSULAR EM ABSTRAÇ~AO;
#X obj 29 490 r waveshape @hv_param;
#X connect 1 0 31 0;
#X connect 2 0 1 0;
#X connect 2 0 27 0 32.................J....7E...fB....eA...zA....;
#X connect 2 0 28 0 32.................J....PM...fB....TC...zA....;
#X connect 3 0 2 0;
#X connect 4 0 3 0 32.................e....T1++++G....k8+++KE....;
#X connect 4 1 7 0 32.................b....7G....G....+A...7B....;
#X connect 5 0 0 0;
#X connect 5 0 0 1;
#X connect 6 0 3 0 32.................2....zw++++M....c7+++KE....;
#X connect 6 1 7 0 32.................R....bA...fD....W....7B....;
#X connect 7 0 11 0;
#X connect 8 0 5 1 32.................K....fu++++B....36+++aA....;
#X connect 9 0 8 0;
#X connect 10 0 9 0;
#X connect 11 0 12 0 32.................I....X6+++eB....19+++eF....;
#X connect 11 1 10 0;
#X connect 12 0 13 0;
#X connect 13 0 8 0;
#X connect 14 0 21 0;
#X connect 15 0 20 0;
#X connect 18 0 12 1;
#X connect 19 0 10 1;
#X connect 20 0 17 0;
#X connect 21 0 16 0;
#X connect 22 0 24 1;
#X connect 25 0 23 1;
#X connect 26 0 25 0;
#X connect 27 0 30 0;
#X connect 28 0 29 0;
#X connect 29 0 5 0 32.................R....zx+++uD....s7++++C....;
#X connect 30 0 5 0 32.................h....H5+++uH....h9++++D....;
#X connect 31 0 5 0 32.................n..........J.........7C....;
#X connect 32 0 31 1;
#X connect 33 0 30 1;
#X connect 34 0 29 1;
#X connect 37 0 38 0;
#X connect 38 0 39 0;
#X connect 38 0 41 0;
#X connect 39 0 40 0;
#X connect 40 0 38 1;
#X connect 41 0 42 0;
#X connect 41 0 46 0;
#X connect 41 0 47 0;
#X connect 42 0 32 0 32.................q....P+++++J....z++++eD....;
#X connect 42 1 43 0 32.................S....3+++++D....9++++aB....;
#X connect 43 0 32 0 32.................G....X8++++A....V++++6.....;
#X connect 44 0 33 0 32.................G....n7++++A....J++++6.....;
#X connect 45 0 34 0 32.................G....L9++++A....i++++6.....;
#X connect 46 0 33 0 32.................j....f9+++OI....n++++eD....;
#X connect 46 1 44 0 32.................S.........vD.........XB....;
#X connect 47 0 34 0 32.................j..........I.........bD....;
#X connect 47 1 45 0 32.................S....3+++++D....9++++aB....;
#X connect 48 0 41 0;
#X connect 50 0 37 0;
