#N canvas 827 239 734 565 12;
#X obj 1039 362 voice, f 154;
#X obj 832 74 inlet waveshape;
#X obj 63 267 s \$0_notemsg1;
#X obj 1156 322 r \$0_notemsg1;
#X obj 1039 397 s~ \$0_output;
#X obj 2423 232 outlet~ output;
#X obj 832 128 s \$0_waveshape;
#X obj 1039 322 r \$0_waveshape;
#X obj 1982 131 inlet attack;
#X obj 2100 133 inlet release;
#X obj 1982 242 s \$0_attack;
#X obj 1982 322 r \$0_attack;
#X obj 2100 322 r \$0_release;
#X obj 1509 178 - 0.5;
#X obj 1509 217 * 2;
#X obj 1392 171 - 0.5;
#X obj 1392 210 * 2;
#X obj 1392 242 * 24;
#X obj 1392 133 inlet pitch_env;
#X obj 1030 64 inlet notemsg;
#X obj 1272 128 inlet oct;
#X obj 1274 322 r \$0_oct;
#X obj 1272 232 s \$0_oct;
#X obj 1628 232 * 5000;
#X obj 1628 133 inlet time;
#X obj 1509 249 * 12;
#X obj 1861 134 inlet lfo_amount;
#X obj 2230 133 inlet volume;
#X obj 2230 289 line~;
#X msg 2230 245 \$1 10;
#X obj 2230 333 s~ \$0_vol;
#X obj 161 267 s \$0_notemsg2;
#X obj 261 267 s \$0_notemsg3;
#X obj 370 267 s \$0_notemsg4;
#X obj 1392 322 r \$0_pitch_env;
#X obj 1392 276 s \$0_pitch_env;
#X obj 1509 76 inlet detune;
#X obj 1509 276 s \$0_detune;
#X obj 1510 322 r \$0_detune;
#X obj 1628 281 s \$0_time;
#X obj 1628 322 r \$0_time;
#X obj 1861 268 s \$0_lfo_amount;
#X obj 1864 322 r \$0_lfo_amount;
#X obj 1039 483 voice, f 154;
#X obj 1039 518 s~ \$0_output;
#X obj 1039 443 r \$0_waveshape;
#X obj 1982 443 r \$0_attack;
#X obj 2100 443 r \$0_release;
#X obj 1274 443 r \$0_oct;
#X obj 1392 443 r \$0_pitch_env;
#X obj 1510 443 r \$0_detune;
#X obj 1628 443 r \$0_time;
#X obj 1864 443 r \$0_lfo_amount;
#X obj 1039 604 voice, f 154;
#X obj 1039 639 s~ \$0_output;
#X obj 1039 564 r \$0_waveshape;
#X obj 1982 564 r \$0_attack;
#X obj 2100 564 r \$0_release;
#X obj 1274 564 r \$0_oct;
#X obj 1392 564 r \$0_pitch_env;
#X obj 1510 564 r \$0_detune;
#X obj 1628 564 r \$0_time;
#X obj 1864 564 r \$0_lfo_amount;
#X obj 1039 717 voice, f 154;
#X obj 1039 752 s~ \$0_output;
#X obj 1039 677 r \$0_waveshape;
#X obj 1982 677 r \$0_attack;
#X obj 2100 677 r \$0_release;
#X obj 1274 677 r \$0_oct;
#X obj 1392 677 r \$0_pitch_env;
#X obj 1510 677 r \$0_detune;
#X obj 1628 677 r \$0_time;
#X obj 1864 677 r \$0_lfo_amount;
#X obj 2452 748 *~;
#X obj 2512 707 r~ \$0_vol;
#X obj 2423 132 r~ \$0_mix;
#X obj 2372 707 r~ \$0_output;
#X obj 2452 824 s~ \$0_mix;
#X obj 1156 443 r \$0_notemsg2;
#X obj 1156 564 r \$0_notemsg3;
#X obj 1156 677 r \$0_notemsg4;
#X obj 2452 784 /~ 12;
#X obj 1039 824 voice, f 154;
#X obj 1039 859 s~ \$0_output;
#X obj 1039 784 r \$0_waveshape;
#X obj 1039 945 voice, f 154;
#X obj 1039 980 s~ \$0_output;
#X obj 1039 905 r \$0_waveshape;
#X obj 1039 1066 voice, f 154;
#X obj 1039 1101 s~ \$0_output;
#X obj 1039 1026 r \$0_waveshape;
#X obj 1039 1179 voice, f 154;
#X obj 1039 1214 s~ \$0_output;
#X obj 1039 1139 r \$0_waveshape;
#X obj 1039 1290 voice, f 154;
#X obj 1039 1325 s~ \$0_output;
#X obj 1039 1250 r \$0_waveshape;
#X obj 1039 1411 voice, f 154;
#X obj 1039 1446 s~ \$0_output;
#X obj 1039 1371 r \$0_waveshape;
#X obj 1039 1532 voice, f 154;
#X obj 1039 1567 s~ \$0_output;
#X obj 1039 1492 r \$0_waveshape;
#X obj 1039 1645 voice, f 154;
#X obj 1039 1680 s~ \$0_output;
#X obj 1039 1605 r \$0_waveshape;
#X obj 1156 784 r \$0_notemsg5;
#X obj 1156 905 r \$0_notemsg6;
#X obj 1156 1026 r \$0_notemsg7;
#X obj 1156 1139 r \$0_notemsg8;
#X obj 1156 1250 r \$0_notemsg9;
#X obj 1156 1371 r \$0_notemsg10;
#X obj 1156 1492 r \$0_notemsg11;
#X obj 1156 1605 r \$0_notemsg12;
#X obj 1274 784 r \$0_oct;
#X obj 1392 774 r \$0_pitch_env;
#X obj 1510 774 r \$0_detune;
#X obj 1628 774 r \$0_time;
#X obj 1274 871 r \$0_oct;
#X obj 1392 871 r \$0_pitch_env;
#X obj 1510 871 r \$0_detune;
#X obj 1628 871 r \$0_time;
#X obj 1274 1001 r \$0_oct;
#X obj 1392 1001 r \$0_pitch_env;
#X obj 1510 1001 r \$0_detune;
#X obj 1628 1001 r \$0_time;
#X obj 1274 1139 r \$0_oct;
#X obj 1392 1131 r \$0_pitch_env;
#X obj 1510 1131 r \$0_detune;
#X obj 1628 1131 r \$0_time;
#X obj 1274 1232 r \$0_oct;
#X obj 1392 1232 r \$0_pitch_env;
#X obj 1510 1232 r \$0_detune;
#X obj 1628 1232 r \$0_time;
#X obj 1274 1333 r \$0_oct;
#X obj 1392 1333 r \$0_pitch_env;
#X obj 1510 1333 r \$0_detune;
#X obj 1628 1333 r \$0_time;
#X obj 1274 1465 r \$0_oct;
#X obj 1392 1465 r \$0_pitch_env;
#X obj 1510 1465 r \$0_detune;
#X obj 1628 1465 r \$0_time;
#X obj 1274 1597 r \$0_oct;
#X obj 1392 1597 r \$0_pitch_env;
#X obj 1510 1597 r \$0_detune;
#X obj 1628 1597 r \$0_time;
#X obj 1982 784 r \$0_attack;
#X obj 2100 784 r \$0_release;
#X obj 1864 784 r \$0_lfo_amount;
#X obj 1982 891 r \$0_attack;
#X obj 2100 891 r \$0_release;
#X obj 1864 891 r \$0_lfo_amount;
#X obj 1982 998 r \$0_attack;
#X obj 2100 998 r \$0_release;
#X obj 1864 998 r \$0_lfo_amount;
#X obj 1982 1105 r \$0_attack;
#X obj 2100 1105 r \$0_release;
#X obj 1864 1105 r \$0_lfo_amount;
#X obj 1982 1232 r \$0_attack;
#X obj 2100 1238 r \$0_release;
#X obj 1864 1232 r \$0_lfo_amount;
#X obj 1982 1358 r \$0_attack;
#X obj 2100 1358 r \$0_release;
#X obj 1864 1358 r \$0_lfo_amount;
#X obj 1982 1481 r \$0_attack;
#X obj 2100 1481 r \$0_release;
#X obj 1864 1481 r \$0_lfo_amount;
#X obj 1982 1604 r \$0_attack;
#X obj 2100 1597 r \$0_release;
#X obj 1864 1604 r \$0_lfo_amount;
#X obj 1030 118 route 1 2 3 4 5 6 7 8 9 10 11 12;
#X obj 479 267 s \$0_notemsg5;
#X obj 593 267 s \$0_notemsg6;
#X obj 704 267 s \$0_notemsg7;
#X obj 817 267 s \$0_notemsg8;
#X obj 926 267 s \$0_notemsg9;
#X obj 1038 267 s \$0_notemsg10;
#X obj 1148 267 s \$0_notemsg11;
#X obj 1251 267 s \$0_notemsg12;
#X obj 1753 133 inlet~;
#X obj 1753 187 s~ \$0_lfo;
#X obj 1746 322 r~ \$0_lfo;
#X obj 1746 443 r~ \$0_lfo;
#X obj 1746 564 r~ \$0_lfo;
#X obj 1746 677 r~ \$0_lfo;
#X obj 1746 774 r~ \$0_lfo;
#X obj 1746 877 r~ \$0_lfo;
#X obj 1746 1001 r~ \$0_lfo;
#X obj 1746 1131 r~ \$0_lfo;
#X obj 1746 1232 r~ \$0_lfo;
#X obj 1746 1342 r~ \$0_lfo;
#X obj 1746 1465 r~ \$0_lfo;
#X obj 1746 1587 r~ \$0_lfo;
#X obj 1272 171 tgl 25 0 empty empty empty 17 7 0 10 #191919 #e1e1e1 #e1e1e1 0 1;
#X obj 2230 208 + 0.0001;
#X obj 2230 169 pow 4;
#X obj 1861 217 + 0.0001;
#X obj 1861 178 pow 2;
#X obj 1628 169 pow 2;
#X obj 1509 144 + 0.0001;
#X obj 1509 105 pow 2;
#X obj 1982 210 + 0.0001;
#X obj 1982 171 pow 1.2;
#X obj 2100 217 + 0.0001;
#X obj 2100 178 pow 1.2;
#X obj 2100 245 s \$0_release;
#X connect 0 0 4 0;
#X connect 1 0 6 0;
#X connect 3 0 0 1;
#X connect 7 0 0 0;
#X connect 8 0 202 0;
#X connect 9 0 204 0;
#X connect 11 0 0 8;
#X connect 12 0 0 9;
#X connect 13 0 14 0;
#X connect 14 0 25 0;
#X connect 15 0 16 0;
#X connect 16 0 17 0;
#X connect 17 0 35 0;
#X connect 18 0 15 0;
#X connect 19 0 170 0;
#X connect 20 0 193 0;
#X connect 21 0 0 2;
#X connect 23 0 39 0;
#X connect 24 0 198 0;
#X connect 25 0 37 0;
#X connect 26 0 197 0;
#X connect 27 0 195 0;
#X connect 28 0 30 0;
#X connect 29 0 28 0;
#X connect 34 0 0 3;
#X connect 36 0 200 0;
#X connect 38 0 0 4;
#X connect 40 0 0 5;
#X connect 42 0 0 7;
#X connect 43 0 44 0;
#X connect 45 0 43 0;
#X connect 46 0 43 8;
#X connect 47 0 43 9;
#X connect 48 0 43 2;
#X connect 49 0 43 3;
#X connect 50 0 43 4;
#X connect 51 0 43 5;
#X connect 52 0 43 7;
#X connect 53 0 54 0;
#X connect 55 0 53 0;
#X connect 56 0 53 8;
#X connect 57 0 53 9;
#X connect 58 0 53 2;
#X connect 59 0 53 3;
#X connect 60 0 53 4;
#X connect 61 0 53 5;
#X connect 62 0 53 7;
#X connect 63 0 64 0;
#X connect 65 0 63 0;
#X connect 66 0 63 8;
#X connect 67 0 63 9;
#X connect 68 0 63 2;
#X connect 69 0 63 3;
#X connect 70 0 63 4;
#X connect 71 0 63 5;
#X connect 72 0 63 7;
#X connect 73 0 81 0;
#X connect 74 0 73 1;
#X connect 75 0 5 0;
#X connect 76 0 73 0;
#X connect 78 0 43 1;
#X connect 79 0 53 1;
#X connect 80 0 63 1;
#X connect 81 0 77 0;
#X connect 82 0 83 0;
#X connect 84 0 82 0;
#X connect 85 0 86 0;
#X connect 87 0 85 0;
#X connect 88 0 89 0;
#X connect 90 0 88 0;
#X connect 91 0 92 0;
#X connect 93 0 91 0;
#X connect 94 0 95 0;
#X connect 96 0 94 0;
#X connect 97 0 98 0;
#X connect 99 0 97 0;
#X connect 100 0 101 0;
#X connect 102 0 100 0;
#X connect 103 0 104 0;
#X connect 105 0 103 0;
#X connect 106 0 82 1;
#X connect 107 0 85 1;
#X connect 108 0 88 1;
#X connect 109 0 91 1;
#X connect 110 0 94 1;
#X connect 111 0 97 1;
#X connect 112 0 100 1;
#X connect 113 0 103 1;
#X connect 114 0 82 2;
#X connect 115 0 82 3;
#X connect 116 0 82 4;
#X connect 117 0 82 5;
#X connect 118 0 85 2;
#X connect 119 0 85 3;
#X connect 120 0 85 4;
#X connect 121 0 85 5;
#X connect 122 0 88 2;
#X connect 123 0 88 3;
#X connect 124 0 88 4;
#X connect 125 0 88 5;
#X connect 126 0 91 2;
#X connect 127 0 91 3;
#X connect 128 0 91 4;
#X connect 129 0 91 5;
#X connect 130 0 94 2;
#X connect 131 0 94 3;
#X connect 132 0 94 4;
#X connect 133 0 94 5;
#X connect 134 0 97 2;
#X connect 135 0 97 3;
#X connect 136 0 97 4;
#X connect 137 0 97 5;
#X connect 138 0 100 2;
#X connect 139 0 100 3;
#X connect 140 0 100 4;
#X connect 141 0 100 5;
#X connect 142 0 103 2;
#X connect 143 0 103 3;
#X connect 144 0 103 4;
#X connect 145 0 103 5;
#X connect 146 0 82 8;
#X connect 147 0 82 9;
#X connect 148 0 82 7;
#X connect 149 0 85 8;
#X connect 150 0 85 9;
#X connect 151 0 85 7;
#X connect 152 0 88 8;
#X connect 153 0 88 9;
#X connect 154 0 88 7;
#X connect 155 0 91 8;
#X connect 156 0 91 9;
#X connect 157 0 91 7;
#X connect 158 0 94 8;
#X connect 159 0 94 9;
#X connect 160 0 94 7;
#X connect 161 0 97 8;
#X connect 162 0 97 9;
#X connect 163 0 97 7;
#X connect 164 0 100 8;
#X connect 165 0 100 9;
#X connect 166 0 100 7;
#X connect 167 0 103 8;
#X connect 168 0 103 9;
#X connect 169 0 103 7;
#X connect 170 0 2 0;
#X connect 170 1 31 0;
#X connect 170 2 32 0;
#X connect 170 3 33 0;
#X connect 170 4 171 0;
#X connect 170 5 172 0;
#X connect 170 6 173 0;
#X connect 170 7 174 0;
#X connect 170 8 175 0;
#X connect 170 9 176 0;
#X connect 170 10 177 0;
#X connect 170 11 178 0;
#X connect 179 0 180 0;
#X connect 181 0 0 6;
#X connect 182 0 43 6;
#X connect 183 0 53 6;
#X connect 184 0 63 6;
#X connect 185 0 82 6;
#X connect 186 0 85 6;
#X connect 187 0 88 6;
#X connect 188 0 91 6;
#X connect 189 0 94 6;
#X connect 190 0 97 6;
#X connect 191 0 100 6;
#X connect 192 0 103 6;
#X connect 193 0 22 0;
#X connect 194 0 29 0;
#X connect 195 0 194 0;
#X connect 196 0 41 0;
#X connect 197 0 196 0;
#X connect 198 0 23 0;
#X connect 199 0 13 0;
#X connect 200 0 199 0;
#X connect 201 0 10 0;
#X connect 202 0 201 0;
#X connect 203 0 205 0;
#X connect 204 0 203 0;
