#N canvas 827 239 734 565 12;
#X obj 203 392 oscillator, f 37;
#X obj 203 340 bng 25 250 50 0 empty empty empty 17 7 0 10 #191919 #e1e1e1 #e1e1e1;
#X obj 251 340 bng 25 250 50 0 empty empty empty 17 7 0 10 #191919 #e1e1e1 #e1e1e1;
#X obj 231 50 notein;
#X obj 227 95 pack f f;
#X obj 227 176 pack f f f;
#X obj 203 532 dac~;
#X obj 446 359 pow 3;
#X obj 446 328 + 0.0001;
#X obj 446 294 r volume @hv_param;
#X obj 419 196 r release @hv_param;
#X obj 392 94 r attack @hv_param;
#X obj 343 130 r time @hv_param;
#X obj 284 222 r pitch_env @hv_param;
#X obj 227 130 poly 12;
#X connect 0 0 6 0;
#X connect 0 0 6 1;
#X connect 1 0 0 0;
#X connect 2 0 0 2;
#X connect 3 0 4 0;
#X connect 3 1 4 1;
#X connect 4 0 14 0;
#X connect 5 0 0 1;
#X connect 7 0 0 9;
#X connect 8 0 7 0;
#X connect 9 0 8 0;
#X connect 10 0 0 8;
#X connect 11 0 0 7;
#X connect 12 0 0 5;
#X connect 13 0 0 3;
#X connect 14 0 5 0;
#X connect 14 1 5 1;
#X connect 14 2 5 2;
