#N canvas 827 239 734 565 12;
#X obj 584 698 oscillator, f 37;
#X obj 584 634 bng 25 250 50 0 empty empty empty 17 7 0 10 #191919 #e1e1e1 #e1e1e1;
#X obj 632 634 bng 25 250 50 0 empty empty empty 17 7 0 10 #191919 #e1e1e1 #e1e1e1;
#X obj 546 176 notein;
#X obj 542 221 pack f f;
#X obj 542 321 pack f f f;
#X obj 827 660 r volume @hv_param;
#X obj 705 606 r time @hv_param;
#X obj 656 357 r pitch_env @hv_param;
#X obj 542 275 poly 12;
#X obj 169 272 osc~;
#X obj 169 314 -~ 0.5;
#X obj 169 359 *~ 2;
#X obj 169 240 * 30;
#X obj 169 407 s~ \$0_lfo;
#X obj 729 640 r~ \$0_lfo;
#X obj 754 504 r lfo_amount @hv_param;
#X obj 683 411 r detune @hv_param;
#X obj 453 575 r waveshape @hv_param;
#X obj 453 528 r octave @hv_param;
#X obj 1166 719 oscillator, f 37;
#X obj 1166 655 bng 25 250 50 0 empty empty empty 17 7 0 10 #191919 #e1e1e1 #e1e1e1;
#X obj 1214 655 bng 25 250 50 0 empty empty empty 17 7 0 10 #191919 #e1e1e1 #e1e1e1;
#X obj 1311 661 r~ \$0_lfo;
#X obj 1238 387 r pitch_env_2 @hv_param;
#X obj 1265 432 r detune_2 @hv_param;
#X obj 1336 525 r lfo_amount_2 @hv_param;
#X obj 1409 675 r volume_2 @hv_param;
#X obj 1287 627 r time_2 @hv_param;
#X obj 1035 549 r octave_2 @hv_param;
#X obj 1035 589 r waveshape_2 @hv_param;
#X obj 542 357 s \$0_midimsg;
#X obj 566 450 r \$0_midimsg;
#X obj 584 753 s~ \$0_out_voice_1;
#X obj 1166 772 s~ \$0_out_voice_2;
#X obj 740 856 r~ \$0_out_voice_2;
#X obj 607 856 r~ \$0_out_voice_1;
#X obj 1116 450 r \$0_midimsg;
#X obj 703 894 +~;
#X obj 169 107 r lfo_freq @hv_param;
#X obj 954 321 r attack @hv_param;
#X obj 1094 321 r release @hv_param;
#X obj 271 666 line~;
#X msg 271 625 \$1 10;
#X obj 87 763 lop~;
#X obj 99 698 + 20;
#X obj 99 644 * 22100;
#X obj 23 720 noise~;
#X obj 184 797 *~;
#X obj 954 366 s \$0_attack;
#X obj 778 549 r \$0_attack;
#X obj 1360 549 r \$0_attack;
#X obj 1094 366 s \$0_release;
#X obj 802 528 r \$0_release;
#X obj 1384 575 r \$0_release;
#X obj 271 463 r noise_volume @hv_param;
#X obj 99 463 r noise_color @hv_param;
#X obj 184 842 s~ \$0_noise;
#X obj 802 1027 r~ \$0_noise;
#X obj 770 1096 *~;
#X obj 740 939 env~;
#X obj 703 1259 +~;
#X obj 740 1027 line~;
#X obj 740 970 / 100;
#X msg 740 993 \$1 10;
#X obj 271 720 *~ 0.2;
#X obj 703 1423 dac~;
#X obj 703 1368 vcf~;
#X obj 477 1169 sig~ 200;
#X obj 445 1220 +~;
#X obj 445 1001 *~ 0;
#X obj 593 1254 +~;
#X obj 607 1185 *~;
#X obj 477 1036 r filter_cutoff @hv_param;
#X obj 765 1247 r filter_resonance @hv_param;
#X obj 819 1141 r filter_env_amount @hv_param;
#X obj 477 965 r filter_lfo_amount @hv_param;
#X obj 445 862 r~ \$0_lfo;
#X obj 477 1125 + 30;
#X obj 477 1078 * 22050;
#X obj 765 1331 + 1;
#X obj 765 1283 * 10;
#X obj 584 1340 +~;
#X obj 445 905 *~ 7000;
#X obj 571 1111 *~ 7000;
#X obj 99 515 exp 1.5;
#X obj 271 515 exp 1.5;
#X obj 99 562 + 0.0001;
#X obj 271 562 + 0.0001;
#X obj 169 194 + 0.0001;
#X obj 169 147 exp 1.2;
#X connect 0 0 33 0;
#X connect 1 0 0 0;
#X connect 2 0 0 2;
#X connect 3 0 4 0;
#X connect 3 1 4 1;
#X connect 4 0 9 0;
#X connect 5 0 31 0;
#X connect 6 0 0 10;
#X connect 7 0 0 5;
#X connect 8 0 0 3;
#X connect 9 0 5 0;
#X connect 9 1 5 1;
#X connect 9 2 5 2;
#X connect 10 0 11 0;
#X connect 11 0 12 0;
#X connect 12 0 14 0;
#X connect 13 0 10 0;
#X connect 15 0 0 6;
#X connect 16 0 0 7;
#X connect 17 0 0 4;
#X connect 18 0 1 0 32.................I....LH...PB....CB...fB....;
#X connect 19 0 2 0 32.................O....LK...vC....yB...bE....;
#X connect 20 0 34 0;
#X connect 21 0 20 0;
#X connect 22 0 20 2;
#X connect 23 0 20 6;
#X connect 24 0 20 3;
#X connect 25 0 20 4;
#X connect 26 0 20 7;
#X connect 27 0 20 10;
#X connect 28 0 20 5;
#X connect 29 0 22 0;
#X connect 30 0 21 0;
#X connect 32 0 0 1 32.................c....nB...PG....p....TN....;
#X connect 35 0 38 1;
#X connect 36 0 38 0;
#X connect 37 0 20 1 48.................+....jD...vO....IA...PD...fR....DA...nD...f9....;
#X connect 38 0 60 0;
#X connect 38 0 61 0;
#X connect 39 0 90 0;
#X connect 40 0 49 0;
#X connect 41 0 52 0;
#X connect 42 0 65 0;
#X connect 43 0 42 0;
#X connect 44 0 48 0;
#X connect 45 0 44 1;
#X connect 46 0 45 0;
#X connect 47 0 44 0;
#X connect 48 0 57 0;
#X connect 50 0 0 8;
#X connect 51 0 20 8;
#X connect 53 0 0 9;
#X connect 54 0 20 9;
#X connect 55 0 86 0;
#X connect 56 0 85 0;
#X connect 58 0 59 1;
#X connect 59 0 61 1;
#X connect 60 0 63 0;
#X connect 61 0 67 0;
#X connect 62 0 59 0;
#X connect 62 0 84 0;
#X connect 63 0 64 0;
#X connect 64 0 62 0;
#X connect 65 0 48 1;
#X connect 67 0 66 0;
#X connect 67 0 66 1;
#X connect 68 0 82 0;
#X connect 69 0 71 0;
#X connect 70 0 69 0;
#X connect 71 0 82 1;
#X connect 72 0 71 1;
#X connect 73 0 79 0;
#X connect 74 0 81 0;
#X connect 75 0 72 1;
#X connect 76 0 70 1;
#X connect 77 0 83 0;
#X connect 78 0 68 0;
#X connect 79 0 78 0;
#X connect 80 0 67 2;
#X connect 81 0 80 0;
#X connect 82 0 67 1;
#X connect 83 0 70 0;
#X connect 84 0 72 0;
#X connect 85 0 87 0;
#X connect 86 0 88 0;
#X connect 87 0 46 0;
#X connect 88 0 43 0;
#X connect 89 0 13 0;
#X connect 90 0 89 0;
