#N canvas 827 239 734 565 12;
#X obj 2160 547 *~;
#N canvas 0 50 450 300 envelope 0;
#X obj 474 461 inlet;
#X obj 578 461 inlet;
#X obj 518 335 / 127;
#X obj 498 581 line~;
#X msg 547 540 \$1 \$2;
#X obj 547 492 pack f f;
#X obj 518 370 route 0;
#X obj 443 492 pack f f;
#X msg 443 540 \$1 \$2;
#X obj 498 626 outlet~;
#X obj 518 285 inlet;
#X connect 0 0 7 1;
#X connect 1 0 5 1;
#X connect 2 0 6 0;
#X connect 3 0 9 0;
#X connect 4 0 3 0;
#X connect 5 0 4 0;
#X connect 6 0 7 0 32.................I....X6+++eB....19+++eF....;
#X connect 6 1 5 0;
#X connect 7 0 8 0;
#X connect 8 0 3 0;
#X connect 10 0 2 0;
#X restore 2408 482 pd envelope;
#N canvas 0 50 450 300 waves 0;
#X obj 614 337 tgl 25 0 empty empty empty 17 7 0 10 #191919 #e1e1e1 #e1e1e1 0 1;
#X obj 754 337 tgl 25 0 empty empty empty 17 7 0 10 #191919 #e1e1e1 #e1e1e1 0 1;
#X obj 901 337 tgl 25 0 empty empty empty 17 7 0 10 #191919 #e1e1e1 #e1e1e1 0 1;
#X obj 453 120 bng 25 250 50 0 empty empty empty 17 7 0 10 #191919 #e1e1e1 #e1e1e1;
#X obj 453 175 f;
#X obj 501 175 + 1;
#X floatatom 453 225 5 0 0 0 - - - 12;
#X obj 614 270 select 0;
#X msg 658 304 0;
#X msg 810 304 0;
#X msg 932 304 0;
#X obj 754 262 select 1;
#X obj 901 270 select 2;
#X obj 549 175 % 3;
#X obj 459 421 hv.osc~ saw;
#X obj 654 421 hv.osc~ square;
#X obj 796 421 hv.osc~ sine;
#X obj 796 606 *~;
#X obj 654 606 *~;
#X obj 459 606 *~;
#X obj 459 381 mtof~;
#X obj 654 699 outlet~;
#X obj 453 73 inlet wave_select;
#X obj 459 315 inlet~ pitch;
#X obj 343 73 loadbang;
#X connect 0 0 19 1 32.................WC...D2++++0....w8+++SO....;
#X connect 1 0 18 1 32.................XC...n8+++O1....Z++++SO....;
#X connect 2 0 17 1 32.................gC...T8+++e3....U++++SO....;
#X connect 3 0 4 0;
#X connect 4 0 5 0;
#X connect 4 0 6 0;
#X connect 5 0 13 0;
#X connect 6 0 7 0 32.................A....DJ...P.....gB...rA....;
#X connect 6 0 11 0 48......................XN.........lC...D....v9....A....rO...vD....;
#X connect 6 0 12 0 32.................B....TW...f.....0E...rA....;
#X connect 7 0 0 0 32.................T..........E..........C....;
#X connect 7 1 8 0 32.................7++++q.....+++++J....7.....;
#X connect 8 0 0 0 32.................G....X8++++A....V++++6.....;
#X connect 9 0 1 0 32.................G....n7++++A....J++++6.....;
#X connect 10 0 2 0 32.................G....L9++++A....i++++6.....;
#X connect 11 0 1 0 32.................U.........PE.........fC....;
#X connect 11 1 9 0 32.................P....jA....D....Y....bA....;
#X connect 12 0 2 0 32.................M.........PC..........C....;
#X connect 12 1 10 0 32.................7++++6++++O+++++9+++++.....;
#X connect 13 0 4 1;
#X connect 14 0 19 0;
#X connect 15 0 18 0;
#X connect 16 0 17 0;
#X connect 17 0 21 0 32.................f....L2+++OH....y8+++qD....;
#X connect 18 0 21 0;
#X connect 19 0 21 0 32.................i....LL...vH....CC...nD....;
#X connect 20 0 16 0 32.................A....PM...P.....TC...TA....;
#X connect 20 0 14 0;
#X connect 20 0 15 0 32......................7E.........eA...TA....;
#X connect 22 0 3 0;
#X connect 23 0 20 0;
#X connect 24 0 3 0 32.................Y....3F...PF....tA...vA....;
#X restore 2041 499 pd waves;
#N canvas 0 50 450 300 note_processing 1;
#X obj 558 621 outlet~;
#X obj 602 169 tgl 25 0 empty empty empty 17 7 0 10 #191919 #e1e1e1 #e1e1e1 0 1;
#X obj 602 219 * 12;
#X obj 695 214 * 24;
#X obj 695 247 - 12;
#X obj 558 427 +~ 0;
#X obj 558 392 +~ 0;
#X obj 389 237 spigot;
#X obj 498 168 tgl 25 0 empty empty empty 17 7 0 10 #191919 #e1e1e1 #e1e1e1 0 1;
#X obj 389 361 line~;
#X obj 389 300 pack f f f;
#X msg 389 330 \$2 \, \$1 \$3;
#X obj 287 237 + 0;
#X obj 287 192 t b f;
#X obj 800 462 *~ 24;
#X obj 800 514 *~ 0;
#X obj 558 557 +~;
#X obj 800 180 bendin, f 7;
#X obj 800 217 / 16383;
#X floatatom 800 247 5 0 0 0 - - - 12;
#X obj 800 289 * 24;
#X obj 800 322 - 12;
#X obj 800 376 line~;
#X obj 558 467 +~;
#X msg 800 347 \$1 100;
#X obj 389 117 inlet midi_note;
#X obj 498 117 inlet midi_vel;
#X obj 602 117 inlet octave;
#X obj 287 117 inlet pitch_env;
#X obj 695 180 inlet detune;
#X obj 428 266 inlet time;
#X obj 859 462 inlet lfo_amount;
#X obj 889 410 inlet~ lfo;
#X connect 1 0 2 0;
#X connect 2 0 6 1 32.................YA...L9+++eV....i++++qI....;
#X connect 3 0 4 0;
#X connect 4 0 5 1 48.................XB...z4+++Ol....c9+++eI...fg++++WB...X3+++en....;
#X connect 5 0 23 0;
#X connect 6 0 5 0;
#X connect 7 0 10 0;
#X connect 8 0 7 1 32.................i....r5++++H....q9+++yB....;
#X connect 9 0 6 0 32.................F....jJ...fA....oB...v.....;
#X connect 10 0 11 0;
#X connect 11 0 9 0;
#X connect 12 0 10 1 32.................i....jG...vH....4A...vB....;
#X connect 13 0 12 0;
#X connect 13 1 12 1;
#X connect 14 0 15 0;
#X connect 15 0 16 1 32.................K....nw++++B....Z7+++qB....;
#X connect 16 0 0 0;
#X connect 17 0 18 0;
#X connect 18 0 19 0;
#X connect 19 0 20 0;
#X connect 20 0 21 0;
#X connect 21 0 24 0;
#X connect 22 0 23 1 32.................+....nw++++O....Z7+++iD....;
#X connect 23 0 16 0;
#X connect 24 0 22 0;
#X connect 25 0 12 0 32.................SA...r4++++T....a9+++WF....;
#X connect 25 0 7 0;
#X connect 26 0 8 0;
#X connect 27 0 1 0;
#X connect 28 0 13 0;
#X connect 29 0 3 0 32.................G.........vA.........7.....;
#X connect 30 0 10 2;
#X connect 31 0 15 1 32.................Q....H8+++eD....R++++GB....;
#X connect 32 0 14 0 32.................K....f5++++B....n9+++GB....;
#X restore 2090 464 pd note_processing;
#X obj 2160 589 *~;
#X obj 1669 547 *~;
#N canvas 0 50 450 300 envelope 0;
#X obj 474 461 inlet;
#X obj 578 461 inlet;
#X obj 518 335 / 127;
#X obj 498 581 line~;
#X msg 547 540 \$1 \$2;
#X obj 547 492 pack f f;
#X obj 518 370 route 0;
#X obj 443 492 pack f f;
#X msg 443 540 \$1 \$2;
#X obj 498 626 outlet~;
#X obj 518 285 inlet;
#X connect 0 0 7 1;
#X connect 1 0 5 1;
#X connect 2 0 6 0;
#X connect 3 0 9 0;
#X connect 4 0 3 0;
#X connect 5 0 4 0;
#X connect 6 0 7 0 32.................I....X6+++eB....19+++eF....;
#X connect 6 1 5 0;
#X connect 7 0 8 0;
#X connect 8 0 3 0;
#X connect 10 0 2 0;
#X restore 1809 510 pd envelope;
#N canvas 0 50 450 300 waves 0;
#X obj 614 337 tgl 25 0 empty empty empty 17 7 0 10 #191919 #e1e1e1 #e1e1e1 0 1;
#X obj 754 337 tgl 25 0 empty empty empty 17 7 0 10 #191919 #e1e1e1 #e1e1e1 0 1;
#X obj 901 337 tgl 25 0 empty empty empty 17 7 0 10 #191919 #e1e1e1 #e1e1e1 0 1;
#X obj 453 120 bng 25 250 50 0 empty empty empty 17 7 0 10 #191919 #e1e1e1 #e1e1e1;
#X obj 453 175 f;
#X obj 501 175 + 1;
#X floatatom 453 225 5 0 0 0 - - - 12;
#X obj 614 270 select 0;
#X msg 658 304 0;
#X msg 810 304 0;
#X msg 932 304 0;
#X obj 754 262 select 1;
#X obj 901 270 select 2;
#X obj 549 175 % 3;
#X obj 459 421 hv.osc~ saw;
#X obj 654 421 hv.osc~ square;
#X obj 796 421 hv.osc~ sine;
#X obj 796 606 *~;
#X obj 654 606 *~;
#X obj 459 606 *~;
#X obj 459 381 mtof~;
#X obj 654 699 outlet~;
#X obj 453 73 inlet wave_select;
#X obj 459 315 inlet~ pitch;
#X obj 343 73 loadbang;
#X connect 0 0 19 1 32.................WC...D2++++0....w8+++SO....;
#X connect 1 0 18 1 32.................XC...n8+++O1....Z++++SO....;
#X connect 2 0 17 1 32.................gC...T8+++e3....U++++SO....;
#X connect 3 0 4 0;
#X connect 4 0 5 0;
#X connect 4 0 6 0;
#X connect 5 0 13 0;
#X connect 6 0 7 0 32.................A....DJ...P.....gB...rA....;
#X connect 6 0 11 0 48......................XN.........lC...D....v9....A....rO...vD....;
#X connect 6 0 12 0 32.................B....TW...f.....0E...rA....;
#X connect 7 0 0 0 32.................T..........E..........C....;
#X connect 7 1 8 0 32.................7++++q.....+++++J....7.....;
#X connect 8 0 0 0 32.................G....X8++++A....V++++6.....;
#X connect 9 0 1 0 32.................G....n7++++A....J++++6.....;
#X connect 10 0 2 0 32.................G....L9++++A....i++++6.....;
#X connect 11 0 1 0 32.................U.........PE.........fC....;
#X connect 11 1 9 0 32.................P....jA....D....Y....bA....;
#X connect 12 0 2 0 32.................M.........PC..........C....;
#X connect 12 1 10 0 32.................7++++6++++O+++++9+++++.....;
#X connect 13 0 4 1;
#X connect 14 0 19 0;
#X connect 15 0 18 0;
#X connect 16 0 17 0;
#X connect 17 0 21 0 32.................f....L2+++OH....y8+++qD....;
#X connect 18 0 21 0;
#X connect 19 0 21 0 32.................i....LL...vH....CC...nD....;
#X connect 20 0 16 0 32.................A....PM...P.....TC...TA....;
#X connect 20 0 14 0;
#X connect 20 0 15 0 32......................7E.........eA...TA....;
#X connect 22 0 3 0;
#X connect 23 0 20 0;
#X connect 24 0 3 0 32.................Y....3F...PF....tA...vA....;
#X restore 1553 510 pd waves;
#N canvas 0 50 450 300 note_processing 1;
#X obj 558 621 outlet~;
#X obj 602 169 tgl 25 0 empty empty empty 17 7 0 10 #191919 #e1e1e1 #e1e1e1 0 1;
#X obj 602 219 * 12;
#X obj 695 214 * 24;
#X obj 695 247 - 12;
#X obj 558 427 +~ 0;
#X obj 558 392 +~ 0;
#X obj 389 237 spigot;
#X obj 498 168 tgl 25 0 empty empty empty 17 7 0 10 #191919 #e1e1e1 #e1e1e1 0 1;
#X obj 389 361 line~;
#X obj 389 300 pack f f f;
#X msg 389 330 \$2 \, \$1 \$3;
#X obj 287 237 + 0;
#X obj 287 192 t b f;
#X obj 800 462 *~ 24;
#X obj 800 514 *~ 0;
#X obj 558 557 +~;
#X obj 800 180 bendin, f 7;
#X obj 800 217 / 16383;
#X floatatom 800 247 5 0 0 0 - - - 12;
#X obj 800 289 * 24;
#X obj 800 322 - 12;
#X obj 800 376 line~;
#X obj 558 467 +~;
#X msg 800 347 \$1 100;
#X obj 389 117 inlet midi_note;
#X obj 498 117 inlet midi_vel;
#X obj 602 117 inlet octave;
#X obj 268 117 inlet pitch_env_2;
#X obj 428 266 inlet time_2;
#X obj 695 180 inlet detune_2;
#X obj 875 416 inlet~ lfo;
#X obj 859 462 inlet lfo_amount_2;
#X connect 1 0 2 0;
#X connect 2 0 6 1 32.................YA...L9+++eV....i++++qI....;
#X connect 3 0 4 0;
#X connect 4 0 5 1 48.................XB...z4+++Ol....c9+++eI...fg++++WB...X3+++en....;
#X connect 5 0 23 0;
#X connect 6 0 5 0;
#X connect 7 0 10 0;
#X connect 8 0 7 1 32.................i....r5++++H....q9+++yB....;
#X connect 9 0 6 0 32.................F....jJ...fA....oB...v.....;
#X connect 10 0 11 0;
#X connect 11 0 9 0;
#X connect 12 0 10 1 32.................i....jG...vH....4A...vB....;
#X connect 13 0 12 0;
#X connect 13 1 12 1;
#X connect 14 0 15 0;
#X connect 15 0 16 1 32.................K....nw++++B....Z7+++qB....;
#X connect 16 0 0 0;
#X connect 17 0 18 0;
#X connect 18 0 19 0;
#X connect 19 0 20 0;
#X connect 20 0 21 0;
#X connect 21 0 24 0;
#X connect 22 0 23 1 32.................+....nw++++O....Z7+++iD....;
#X connect 23 0 16 0;
#X connect 24 0 22 0;
#X connect 25 0 12 0 32.................SA...r4++++T....a9+++WF....;
#X connect 25 0 7 0;
#X connect 26 0 8 0;
#X connect 27 0 1 0;
#X connect 28 0 13 0 32.................b....LA....G....S....fC....;
#X connect 29 0 10 2;
#X connect 30 0 3 0 32.................G.........vA.........7.....;
#X connect 31 0 14 0 32.................I....X6+++eB....19+++uA....;
#X connect 32 0 15 1 32.................Q....H8+++eD....R++++GB....;
#X restore 1573 480 pd note_processing;
#X obj 1669 589 *~;
#X obj 1931 670 *~ 0.5;
#X obj 1931 708 outlet~;
#X obj 1403 436 inlet waveshape_2;
#X obj 1641 379 inlet octave_2;
#X obj 1758 480 inlet release;
#X obj 1896 480 inlet attack;
#X obj 1868 268 inlet note;
#X obj 2033 268 inlet velocity;
#X obj 1966 438 inlet waveshape;
#X obj 2158 379 inlet octave;
#X obj 2350 438 inlet release;
#X obj 2467 438 inlet attack;
#X obj 2229 547 inlet volume;
#X obj 1738 547 inlet volume_2;
#X obj 1573 312 inlet pitch_env_2;
#X obj 1698 312 inlet time_2;
#X obj 1669 401 inlet detune_2;
#X obj 1710 450 inlet~ lfo_2;
#X obj 1695 425 inlet lfo_amount_2;
#X obj 2090 294 inlet pitch_env;
#X obj 2124 334 inlet time;
#X obj 2175 401 inlet detune;
#X obj 2192 425 inlet lfo_amount;
#X obj 2276 458 inlet~ lfo;
#X connect 0 0 4 0;
#X connect 1 0 0 1 32.................e....z3++++G....M9+++CC....;
#X connect 2 0 0 0 32.................O....bG...vC....2A...zA....;
#X connect 3 0 2 1 32.................A....r++++e.....6++++CA....;
#X connect 4 0 10 0 32.................e....vw++++G....b7+++6C....;
#X connect 5 0 9 0;
#X connect 6 0 5 1 32.................A.....3+++e......9+++KA....;
#X connect 7 0 5 0 32.................D....PG....A....zA...HA....;
#X connect 8 0 7 1 32.................9++++eA...f+++++W....r.....;
#X connect 9 0 10 0 32.................f....XP....H....FD...3C....;
#X connect 10 0 11 0;
#X connect 12 0 7 0 32.................V....XI...fE....VB...bC....;
#X connect 13 0 8 4 32.................W.........vE.........HE....;
#X connect 14 0 6 0 32.................F....LC...fA....y....r.....;
#X connect 15 0 6 2 32.................F....T9+++uA....k++++u.....;
#X connect 16 0 8 1 32.................4....rt+++eN....q6+++GL....;
#X connect 16 0 3 1 32.................5....7N...fN....uC...DK....;
#X connect 17 0 1 1 32.................FA...rQ...fQ....aD...DL....;
#X connect 17 0 8 3 32.................RA...fl+++uT....n4+++GL....;
#X connect 17 0 6 1 32.................SA...3y++++T....97++++M....;
#X connect 17 0 3 3 32.................SA...vF...vT....rA...DK....;
#X connect 18 0 2 0 32.................T....rD....E....KA...nB....;
#X connect 19 0 3 4;
#X connect 20 0 1 0 32.................M....nC...PC....5....jA....;
#X connect 21 0 1 2 32.................M.........PC.........jA....;
#X connect 22 0 4 1 32.................S....b7++++D....G++++eA....;
#X connect 23 0 9 1 32.................S....b7++++D....G++++eA....;
#X connect 24 0 8 0;
#X connect 25 0 8 2 32.................Y....X5+++eF....l9+++WI....;
#X connect 26 0 8 5 32.................N....X++++uC....1++++yC....;
#X connect 27 0 8 7 32.................F....79+++uA....u++++u.....;
#X connect 28 0 8 6 32.................J....z9+++uB....s++++SB....;
#X connect 29 0 3 0;
#X connect 30 0 3 2;
#X connect 31 0 3 5;
#X connect 32 0 3 6;
#X connect 33 0 3 7 48.................F....78+++uA....e++++S++++uu++++z++++66+++O8++++;
