#N canvas 827 239 734 565 12;
#X obj 1090 426 s \$0_waveshape_2;
#X obj 675 382 s \$0_detune_2;
#X obj 794 482 s \$0_pitch_env_2;
#X obj 924 482 s \$0_time_2;
#X obj 969 338 s \$0_lfo_aumout_2;
#X obj 991 306 s \$0_volume_2;
#X obj 152 217 s \$0_detune;
#X obj 32 500 s \$0_pitch_env;
#X obj 133 500 s \$0_time;
#X obj 224 382 s \$0_lfo_aumout;
#X obj 353 382 s \$0_volume;
#X obj 1236 792 single_voice, f 161;
#X obj 764 681 r \$0_octave_2;
#X obj 498 681 r \$0_waveshape_2;
#X obj 1425 674 r \$0_release;
#X obj 1310 674 r \$0_volume_2;
#X obj 1543 674 r \$0_note;
#X obj 1630 658 r \$0_attack;
#X obj 1845 650 r \$0_waveshape;
#X obj 2124 681 r \$0_octave;
#X obj 2770 681 r \$0_release;
#X obj 2525 681 r \$0_volume;
#X obj 2891 681 r \$0_attack;
#X obj 876 681 r \$0_detune_2;
#X obj 993 681 r \$0_lfo_aumout_2;
#X obj 1135 681 r \$0_time_2;
#X obj 1227 674 r~ \$0_lfo;
#X obj 2667 681 r~ \$0_lfo;
#X obj 629 681 r \$0_pitch_env_2;
#X obj 1922 681 r \$0_pitch_env;
#X obj 2043 681 r \$0_time;
#X obj 2218 681 r \$0_detune;
#X obj 2347 681 r \$0_lfo_aumout;
#X obj 1348 541 s \$0_midi_message_1;
#X obj 1369 511 s \$0_midi_message_2;
#X obj 1396 481 s \$0_midi_message_3;
#X obj 1790 610 r \$0_midi_message_1;
#X obj 1236 825 s~ mix;
#X obj 1236 1039 single_voice, f 161;
#X obj 764 928 r \$0_octave_2;
#X obj 498 928 r \$0_waveshape_2;
#X obj 1425 921 r \$0_release;
#X obj 1310 921 r \$0_volume_2;
#X obj 1543 921 r \$0_note;
#X obj 1630 905 r \$0_attack;
#X obj 1845 897 r \$0_waveshape;
#X obj 2124 928 r \$0_octave;
#X obj 2770 928 r \$0_release;
#X obj 2525 928 r \$0_volume;
#X obj 2891 928 r \$0_attack;
#X obj 876 928 r \$0_detune_2;
#X obj 993 928 r \$0_lfo_aumout_2;
#X obj 1135 928 r \$0_time_2;
#X obj 1227 921 r~ \$0_lfo;
#X obj 2667 928 r~ \$0_lfo;
#X obj 629 928 r \$0_pitch_env_2;
#X obj 1922 928 r \$0_pitch_env;
#X obj 2043 928 r \$0_time;
#X obj 2218 928 r \$0_detune;
#X obj 2347 928 r \$0_lfo_aumout;
#X obj 1291 1302 single_voice, f 161;
#X obj 819 1191 r \$0_octave_2;
#X obj 553 1191 r \$0_waveshape_2;
#X obj 1480 1184 r \$0_release;
#X obj 1365 1184 r \$0_volume_2;
#X obj 1598 1184 r \$0_note;
#X obj 1685 1168 r \$0_attack;
#X obj 1900 1160 r \$0_waveshape;
#X obj 2179 1191 r \$0_octave;
#X obj 2825 1191 r \$0_release;
#X obj 2580 1191 r \$0_volume;
#X obj 2946 1191 r \$0_attack;
#X obj 931 1191 r \$0_detune_2;
#X obj 1048 1191 r \$0_lfo_aumout_2;
#X obj 1190 1191 r \$0_time_2;
#X obj 1282 1184 r~ \$0_lfo;
#X obj 2722 1191 r~ \$0_lfo;
#X obj 684 1191 r \$0_pitch_env_2;
#X obj 1977 1191 r \$0_pitch_env;
#X obj 2098 1191 r \$0_time;
#X obj 2273 1191 r \$0_detune;
#X obj 2402 1191 r \$0_lfo_aumout;
#X obj 1790 857 r \$0_midi_message_2;
#X obj 1845 1120 r \$0_midi_message_3;
#X obj 1714 1414 r~ mix;
#X obj 1781 1506 outlet~;
#X obj 1236 1083 s~ mix_2;
#X obj 1291 1335 s~ mix_3;
#X obj 1769 1414 r~ mix_2;
#X obj 1837 1414 r~ mix_3;
#X obj 1781 1456 /~ 3;
#X obj 1358 221 route 1 2 3;
#X obj 578 382 s \$0_octave;
#X obj 447 382 s \$0_waveshape;
#X obj 750 85 inlet voice_presets;
#X obj 1222 426 s \$0_octave_2;
#X obj 32 386 - 0.5;
#X obj 32 425 * 2;
#X obj 32 457 * 24;
#X obj 133 389 * 5000;
#X obj 794 365 - 0.5;
#X obj 794 400 * 2;
#X obj 794 435 * 24;
#X obj 924 382 * 5000;
#X obj 1245 306 s \$0_release;
#X obj 1156 306 s \$0_attack;
#X obj 1245 279 * 15000;
#X obj 1156 279 * 15000;
#X obj 1358 186 pack f f f;
#X obj 1358 133 poly 3;
#X obj 1364 95 unpack f f;
#X obj 1517 213 osc~;
#X obj 1517 255 -~ 0.5;
#X obj 1517 300 *~ 2;
#X obj 1517 152 * 30;
#X obj 750 130 route detune pitch_env time lfo_amount volume waveshape octave detune2 pitch_env2 time2 lfo_amount2 volume2 waveshape2 octave2 attack release midi_msg lfo_freq;
#X obj 1517 336 s~ \$0_lfo;
#X connect 11 0 37 0;
#X connect 12 0 11 2 32.................1....Dj...fM....AI...vE....;
#X connect 13 0 11 0 32.................MA...Ht...PS....hK...vE....;
#X connect 14 0 11 8 32.................N....jN...fC....oC...LF....;
#X connect 15 0 11 7 32.................S....bR...vD....mD...LF....;
#X connect 17 0 11 9 32.................L....XH....C....FB...LG....;
#X connect 18 0 11 11;
#X connect 19 0 11 14 32.................Y....D5+++eF....g9+++yE....;
#X connect 20 0 11 19 32.................+....Lh++++O....i3+++yE....;
#X connect 21 0 11 17 32.................u....3p++++K....t5+++yE....;
#X connect 22 0 11 20 32.................JA...7c+++uR....e2+++yE....;
#X connect 23 0 11 3 32.................s....Xf...PK....FH...vE....;
#X connect 24 0 11 4 32.................k....Xb...PI....FG...vE....;
#X connect 25 0 11 5 32.................Z....zV...fF....sE...vE....;
#X connect 26 0 11 6 32.................Z....TT...fF....EE...LF....;
#X connect 27 0 11 18 32.................z....Tk+++OM....U4+++yE....;
#X connect 28 0 11 1 32..................A...Lo....P....SJ...vE....;
#X connect 29 0 11 12 32.................l.........fI.........vE....;
#X connect 30 0 11 13 32.................T....z6+++OE....89+++yE....;
#X connect 31 0 11 15 32.................c....b2+++eG....28+++yE....;
#X connect 32 0 11 16 32.................l....rx+++uI....q7+++yE....;
#X connect 36 0 11 10;
#X connect 38 0 86 0;
#X connect 39 0 38 2 32.................1....Dj...fM....AI...vE....;
#X connect 40 0 38 0 32.................MA...Ht...PS....hK...vE....;
#X connect 41 0 38 8 32.................N....jN...fC....oC...LF....;
#X connect 42 0 38 7 32.................S....bR...vD....mD...LF....;
#X connect 44 0 38 9 32.................L....XH....C....FB...LG....;
#X connect 45 0 38 11;
#X connect 46 0 38 14 32.................Y....D5+++eF....g9+++yE....;
#X connect 47 0 38 19 32.................+....Lh++++O....i3+++yE....;
#X connect 48 0 38 17 32.................u....3p++++K....t5+++yE....;
#X connect 49 0 38 20 32.................JA...7c+++uR....e2+++yE....;
#X connect 50 0 38 3 32.................s....Xf...PK....FH...vE....;
#X connect 51 0 38 4 32.................k....Xb...PI....FG...vE....;
#X connect 52 0 38 5 32.................Z....zV...fF....sE...vE....;
#X connect 53 0 38 6 32.................Z....TT...fF....EE...LF....;
#X connect 54 0 38 18 32.................z....Tk+++OM....U4+++yE....;
#X connect 55 0 38 1 32..................A...Lo....P....SJ...vE....;
#X connect 56 0 38 12 32.................l.........fI.........vE....;
#X connect 57 0 38 13 32.................T....z6+++OE....89+++yE....;
#X connect 58 0 38 15 32.................c....b2+++eG....28+++yE....;
#X connect 59 0 38 16 32.................l....rx+++uI....q7+++yE....;
#X connect 60 0 87 0;
#X connect 61 0 60 2 32.................1....Dj...fM....AI...vE....;
#X connect 62 0 60 0 32.................MA...Ht...PS....hK...vE....;
#X connect 63 0 60 8 32.................N....jN...fC....oC...LF....;
#X connect 64 0 60 7 32.................S....bR...vD....mD...LF....;
#X connect 66 0 60 9 32.................L....XH....C....FB...LG....;
#X connect 67 0 60 11;
#X connect 68 0 60 14 32.................Y....D5+++eF....g9+++yE....;
#X connect 69 0 60 19 32.................+....Lh++++O....i3+++yE....;
#X connect 70 0 60 17 32.................u....3p++++K....t5+++yE....;
#X connect 71 0 60 20 32.................JA...7c+++uR....e2+++yE....;
#X connect 72 0 60 3 32.................s....Xf...PK....FH...vE....;
#X connect 73 0 60 4 32.................k....Xb...PI....FG...vE....;
#X connect 74 0 60 5 32.................Z....zV...fF....sE...vE....;
#X connect 75 0 60 6 32.................Z....TT...fF....EE...LF....;
#X connect 76 0 60 18 32.................z....Tk+++OM....U4+++yE....;
#X connect 77 0 60 1 32..................A...Lo....P....SJ...vE....;
#X connect 78 0 60 12 32.................l.........fI.........vE....;
#X connect 79 0 60 13 32.................T....z6+++OE....89+++yE....;
#X connect 80 0 60 15 32.................c....b2+++eG....28+++yE....;
#X connect 81 0 60 16 32.................l....rx+++uI....q7+++yE....;
#X connect 82 0 38 10;
#X connect 83 0 60 10;
#X connect 84 0 90 0;
#X connect 88 0 90 0;
#X connect 89 0 90 0;
#X connect 90 0 85 0;
#X connect 91 0 33 0 32.................bA...b++++OW....2++++2R....;
#X connect 91 1 34 0 32.................MA...v++++eS....7+++++P....;
#X connect 91 2 35 0 32.................9....X....fO....F....DO....;
#X connect 94 0 115 0;
#X connect 96 0 97 0;
#X connect 97 0 98 0;
#X connect 98 0 7 0;
#X connect 99 0 8 0;
#X connect 100 0 101 0;
#X connect 101 0 102 0;
#X connect 102 0 2 0;
#X connect 103 0 3 0;
#X connect 106 0 104 0;
#X connect 107 0 105 0;
#X connect 108 0 91 0;
#X connect 109 0 108 0 32.................I.........PB.........HB....;
#X connect 109 1 108 1 32.................I....T....PB....E....HB....;
#X connect 109 2 108 2 32.................I....n....PB....J....HB....;
#X connect 110 0 109 0;
#X connect 110 1 109 1;
#X connect 111 0 112 0;
#X connect 112 0 113 0;
#X connect 113 0 116 0;
#X connect 114 0 111 0;
#X connect 115 0 6 0;
#X connect 115 1 96 0;
#X connect 115 2 99 0;
#X connect 115 3 9 0;
#X connect 115 4 10 0;
#X connect 115 5 93 0;
#X connect 115 6 92 0;
#X connect 115 7 1 0;
#X connect 115 8 100 0;
#X connect 115 9 103 0;
#X connect 115 10 4 0;
#X connect 115 11 5 0;
#X connect 115 12 0 0;
#X connect 115 13 95 0;
#X connect 115 14 107 0;
#X connect 115 15 106 0;
#X connect 115 16 110 0;
#X connect 115 17 114 0;
