#N canvas 827 239 734 565 12;
#X obj 87 90 inlet octave_2;
#X obj 194 90 inlet waveshape_2;
#X obj 324 90 inlet detune_2;
#X obj 431 90 inlet pitch_env_2;
#X obj 556 90 inlet time_2;
#X obj 656 90 inlet lfo_aumout_2;
#X obj 795 90 inlet volume_2;
#X obj 905 90 inlet octave;
#X obj 1012 90 inlet waveshape;
#X obj 1142 90 inlet detune;
#X obj 1249 90 inlet pitch_env;
#X obj 1374 90 inlet time;
#X obj 1474 90 inlet lfo_aumout;
#X obj 1619 90 inlet volume;
#X obj 87 130 s \$0_octave_2;
#X obj 194 130 s \$0_waveshape_2;
#X obj 324 130 s \$0_detune_2;
#X obj 431 130 s \$0_pitch_env_2;
#X obj 556 130 s \$0_time_2;
#X obj 656 130 s \$0_lfo_aumout_2;
#X obj 795 130 s \$0_volume_2;
#X obj 905 130 s \$0_octave;
#X obj 1012 130 s \$0_waveshape;
#X obj 1142 130 s \$0_detune;
#X obj 1249 130 s \$0_pitch_env;
#X obj 1374 130 s \$0_time;
#X obj 1474 130 s \$0_lfo_aumout;
#X obj 1619 130 s \$0_volume;
#X obj 1743 90 inlet attack;
#X obj 1851 90 inlet release;
#X obj 1743 130 s \$0_attack;
#X obj 1851 130 s \$0_release;
#X obj 1959 90 inlet~ lfo;
#X obj 1959 130 s~ \$0_lfo;
#X obj 1236 792 single_voice, f 161;
#X obj 764 681 r \$0_octave_2;
#X obj 498 681 r \$0_waveshape_2;
#X obj 1425 674 r \$0_release;
#X obj 1310 674 r \$0_volume_2;
#X obj 1543 674 r \$0_note;
#X obj 1630 658 r \$0_attack;
#X obj 1845 650 r \$0_waveshape;
#X obj 2124 681 r \$0_octave;
#X obj 2770 681 r \$0_release;
#X obj 2525 681 r \$0_volume;
#X obj 2891 681 r \$0_attack;
#X obj 876 681 r \$0_detune_2;
#X obj 993 681 r \$0_lfo_aumout_2;
#X obj 1135 681 r \$0_time_2;
#X obj 1227 674 r~ \$0_lfo;
#X obj 2667 681 r~ \$0_lfo;
#X obj 629 681 r \$0_pitch_env_2;
#X obj 1922 681 r \$0_pitch_env;
#X obj 2043 681 r \$0_time;
#X obj 2218 681 r \$0_detune;
#X obj 2347 681 r \$0_lfo_aumout;
#X obj 2082 80 inlet midi_message;
#X obj 2082 560 s \$0_midi_message_1;
#X obj 2103 530 s \$0_midi_message_2;
#X obj 2130 500 s \$0_midi_message_3;
#X obj 2155 472 s \$0_midi_message_4;
#X obj 2177 437 s \$0_midi_message_5;
#X obj 2205 402 s \$0_midi_message_6;
#X obj 2233 367 s \$0_midi_message_7;
#X obj 2261 332 s \$0_midi_message_8;
#X obj 2289 297 s \$0_midi_message_9;
#X obj 2317 262 s \$0_midi_message_10;
#X obj 2345 227 s \$0_midi_message_11;
#X obj 2374 189 s \$0_midi_message_12;
#X obj 1790 610 r \$0_midi_message_1;
#X obj 1236 825 s~ mix;
#X obj 1236 1039 single_voice, f 161;
#X obj 764 928 r \$0_octave_2;
#X obj 498 928 r \$0_waveshape_2;
#X obj 1425 921 r \$0_release;
#X obj 1310 921 r \$0_volume_2;
#X obj 1543 921 r \$0_note;
#X obj 1630 905 r \$0_attack;
#X obj 1845 897 r \$0_waveshape;
#X obj 2124 928 r \$0_octave;
#X obj 2770 928 r \$0_release;
#X obj 2525 928 r \$0_volume;
#X obj 2891 928 r \$0_attack;
#X obj 876 928 r \$0_detune_2;
#X obj 993 928 r \$0_lfo_aumout_2;
#X obj 1135 928 r \$0_time_2;
#X obj 1227 921 r~ \$0_lfo;
#X obj 2667 928 r~ \$0_lfo;
#X obj 629 928 r \$0_pitch_env_2;
#X obj 1922 928 r \$0_pitch_env;
#X obj 2043 928 r \$0_time;
#X obj 2218 928 r \$0_detune;
#X obj 2347 928 r \$0_lfo_aumout;
#X obj 1291 1302 single_voice, f 161;
#X obj 819 1191 r \$0_octave_2;
#X obj 553 1191 r \$0_waveshape_2;
#X obj 1480 1184 r \$0_release;
#X obj 1365 1184 r \$0_volume_2;
#X obj 1598 1184 r \$0_note;
#X obj 1685 1168 r \$0_attack;
#X obj 1900 1160 r \$0_waveshape;
#X obj 2179 1191 r \$0_octave;
#X obj 2825 1191 r \$0_release;
#X obj 2580 1191 r \$0_volume;
#X obj 2946 1191 r \$0_attack;
#X obj 931 1191 r \$0_detune_2;
#X obj 1048 1191 r \$0_lfo_aumout_2;
#X obj 1190 1191 r \$0_time_2;
#X obj 1282 1184 r~ \$0_lfo;
#X obj 2722 1191 r~ \$0_lfo;
#X obj 684 1191 r \$0_pitch_env_2;
#X obj 1977 1191 r \$0_pitch_env;
#X obj 2098 1191 r \$0_time;
#X obj 2273 1191 r \$0_detune;
#X obj 2402 1191 r \$0_lfo_aumout;
#X obj 1790 857 r \$0_midi_message_2;
#X obj 1845 1120 r \$0_midi_message_3;
#X obj 1714 1414 r~ mix;
#X obj 1781 1506 outlet~;
#X obj 1236 1083 s~ mix_2;
#X obj 1291 1335 s~ mix_3;
#X obj 1769 1414 r~ mix_2;
#X obj 1837 1414 r~ mix_3;
#X obj 1781 1456 /~ 3;
#X obj 2082 123 route 1 2 3;
#X connect 0 0 14 0;
#X connect 1 0 15 0;
#X connect 2 0 16 0;
#X connect 3 0 17 0;
#X connect 4 0 18 0;
#X connect 5 0 19 0;
#X connect 6 0 20 0;
#X connect 7 0 21 0;
#X connect 8 0 22 0;
#X connect 9 0 23 0;
#X connect 10 0 24 0;
#X connect 11 0 25 0;
#X connect 12 0 26 0;
#X connect 13 0 27 0;
#X connect 28 0 30 0;
#X connect 29 0 31 0;
#X connect 32 0 33 0;
#X connect 34 0 70 0;
#X connect 35 0 34 2 32.................1....Dj...fM....AI...vE....;
#X connect 36 0 34 0 32.................MA...Ht...PS....hK...vE....;
#X connect 37 0 34 8 32.................N....jN...fC....oC...LF....;
#X connect 38 0 34 7 32.................S....bR...vD....mD...LF....;
#X connect 40 0 34 9 32.................L....XH....C....FB...LG....;
#X connect 41 0 34 11;
#X connect 42 0 34 14 32.................Y....D5+++eF....g9+++yE....;
#X connect 43 0 34 19 32.................+....Lh++++O....i3+++yE....;
#X connect 44 0 34 17 32.................u....3p++++K....t5+++yE....;
#X connect 45 0 34 20 32.................JA...7c+++uR....e2+++yE....;
#X connect 46 0 34 3 32.................s....Xf...PK....FH...vE....;
#X connect 47 0 34 4 32.................k....Xb...PI....FG...vE....;
#X connect 48 0 34 5 32.................Z....zV...fF....sE...vE....;
#X connect 49 0 34 6 32.................Z....TT...fF....EE...LF....;
#X connect 50 0 34 18 32.................z....Tk+++OM....U4+++yE....;
#X connect 51 0 34 1 32..................A...Lo....P....SJ...vE....;
#X connect 52 0 34 12 32.................l.........fI.........vE....;
#X connect 53 0 34 13 32.................T....z6+++OE....89+++yE....;
#X connect 54 0 34 15 32.................c....b2+++eG....28+++yE....;
#X connect 55 0 34 16 32.................l....rx+++uI....q7+++yE....;
#X connect 56 0 124 0;
#X connect 69 0 34 10;
#X connect 71 0 119 0;
#X connect 72 0 71 2 32.................1....Dj...fM....AI...vE....;
#X connect 73 0 71 0 32.................MA...Ht...PS....hK...vE....;
#X connect 74 0 71 8 32.................N....jN...fC....oC...LF....;
#X connect 75 0 71 7 32.................S....bR...vD....mD...LF....;
#X connect 77 0 71 9 32.................L....XH....C....FB...LG....;
#X connect 78 0 71 11;
#X connect 79 0 71 14 32.................Y....D5+++eF....g9+++yE....;
#X connect 80 0 71 19 32.................+....Lh++++O....i3+++yE....;
#X connect 81 0 71 17 32.................u....3p++++K....t5+++yE....;
#X connect 82 0 71 20 32.................JA...7c+++uR....e2+++yE....;
#X connect 83 0 71 3 32.................s....Xf...PK....FH...vE....;
#X connect 84 0 71 4 32.................k....Xb...PI....FG...vE....;
#X connect 85 0 71 5 32.................Z....zV...fF....sE...vE....;
#X connect 86 0 71 6 32.................Z....TT...fF....EE...LF....;
#X connect 87 0 71 18 32.................z....Tk+++OM....U4+++yE....;
#X connect 88 0 71 1 32..................A...Lo....P....SJ...vE....;
#X connect 89 0 71 12 32.................l.........fI.........vE....;
#X connect 90 0 71 13 32.................T....z6+++OE....89+++yE....;
#X connect 91 0 71 15 32.................c....b2+++eG....28+++yE....;
#X connect 92 0 71 16 32.................l....rx+++uI....q7+++yE....;
#X connect 93 0 120 0;
#X connect 94 0 93 2 32.................1....Dj...fM....AI...vE....;
#X connect 95 0 93 0 32.................MA...Ht...PS....hK...vE....;
#X connect 96 0 93 8 32.................N....jN...fC....oC...LF....;
#X connect 97 0 93 7 32.................S....bR...vD....mD...LF....;
#X connect 99 0 93 9 32.................L....XH....C....FB...LG....;
#X connect 100 0 93 11;
#X connect 101 0 93 14 32.................Y....D5+++eF....g9+++yE....;
#X connect 102 0 93 19 32.................+....Lh++++O....i3+++yE....;
#X connect 103 0 93 17 32.................u....3p++++K....t5+++yE....;
#X connect 104 0 93 20 32.................JA...7c+++uR....e2+++yE....;
#X connect 105 0 93 3 32.................s....Xf...PK....FH...vE....;
#X connect 106 0 93 4 32.................k....Xb...PI....FG...vE....;
#X connect 107 0 93 5 32.................Z....zV...fF....sE...vE....;
#X connect 108 0 93 6 32.................Z....TT...fF....EE...LF....;
#X connect 109 0 93 18 32.................z....Tk+++OM....U4+++yE....;
#X connect 110 0 93 1 32..................A...Lo....P....SJ...vE....;
#X connect 111 0 93 12 32.................l.........fI.........vE....;
#X connect 112 0 93 13 32.................T....z6+++OE....89+++yE....;
#X connect 113 0 93 15 32.................c....b2+++eG....28+++yE....;
#X connect 114 0 93 16 32.................l....rx+++uI....q7+++yE....;
#X connect 115 0 71 10;
#X connect 116 0 93 10;
#X connect 117 0 123 0;
#X connect 121 0 123 0;
#X connect 122 0 123 0;
#X connect 123 0 118 0;
#X connect 124 0 57 0 32.................QC........Pz.........HZ....;
#X connect 124 1 58 0 32.................BC...P....fv....D....PX....;
#X connect 124 2 59 0 32.................yB...3....vr....N....XV....;
