#N canvas 827 239 734 565 12;
#X obj 87 90 inlet octave_2;
#X obj 194 90 inlet waveshape_2;
#X obj 324 90 inlet detune_2;
#X obj 431 90 inlet pitch_env_2;
#X obj 556 90 inlet time_2;
#X obj 656 90 inlet lfo_aumout_2;
#X obj 795 90 inlet volume_2;
#X obj 905 90 inlet octave;
#X obj 1012 90 inlet waveshape;
#X obj 1142 90 inlet detune;
#X obj 1249 90 inlet pitch_env;
#X obj 1374 90 inlet time;
#X obj 1474 90 inlet lfo_aumout;
#X obj 1619 90 inlet volume;
#X obj 87 130 s \$0_octave_2;
#X obj 194 130 s \$0_waveshape_2;
#X obj 324 130 s \$0_detune_2;
#X obj 431 130 s \$0_pitch_env_2;
#X obj 556 130 s \$0_time_2;
#X obj 656 130 s \$0_lfo_aumout_2;
#X obj 795 130 s \$0_volume_2;
#X obj 905 130 s \$0_octave;
#X obj 1012 130 s \$0_waveshape;
#X obj 1142 130 s \$0_detune;
#X obj 1249 130 s \$0_pitch_env;
#X obj 1374 130 s \$0_time;
#X obj 1474 130 s \$0_lfo_aumout;
#X obj 1619 130 s \$0_volume;
#X obj 1743 90 inlet attack;
#X obj 1851 90 inlet release;
#X obj 1743 130 s \$0_attack;
#X obj 1851 130 s \$0_release;
#X obj 1959 90 inlet~ lfo;
#X obj 1959 130 s~ \$0_lfo;
#X obj 948 424 single_voice, f 161;
#X obj 948 520 dac~;
#X obj 2052 90 inlet note;
#X obj 2052 130 s \$0_note;
#X obj 2154 90 inlet velocity;
#X obj 2154 130 s \$0_velocity;
#X obj 824 256 r \$0_octave_2, f 13;
#X obj 522 363 r \$0_waveshape_2;
#X obj 1366 344 r \$0_release;
#X obj 1326 256 r \$0_volume_2;
#X obj 1583 244 r \$0_note;
#X obj 1673 244 r \$0_attack;
#X obj 1779 231 r \$0_waveshape;
#X obj 1901 231 r \$0_velocity;
#X obj 2114 262 r \$0_octave;
#X obj 2439 369 r \$0_release;
#X obj 2321 305 r \$0_volume;
#X obj 2446 412 r \$0_attack;
#X obj 956 256 r \$0_detune_2;
#X obj 1070 256 r \$0_lfo_aumout_2;
#X obj 1212 244 r \$0_time_2;
#X obj 1250 344 r~ \$0_lfo;
#X obj 2449 321 r~ \$0_lfo;
#X obj 630 244 r \$0_pitch_env_2;
#X obj 1901 276 r \$0_pitch_env;
#X obj 2016 270 r \$0_time;
#X obj 2122 289 r \$0_detune;
#X obj 2310 270 r \$0_lfo_aumout;
#X connect 0 0 14 0;
#X connect 1 0 15 0;
#X connect 2 0 16 0;
#X connect 3 0 17 0;
#X connect 4 0 18 0;
#X connect 5 0 19 0;
#X connect 6 0 20 0;
#X connect 7 0 21 0;
#X connect 8 0 22 0;
#X connect 9 0 23 0;
#X connect 10 0 24 0;
#X connect 11 0 25 0;
#X connect 12 0 26 0;
#X connect 13 0 27 0;
#X connect 28 0 30 0;
#X connect 29 0 31 0;
#X connect 32 0 33 0;
#X connect 34 0 35 0;
#X connect 34 0 35 1;
#X connect 36 0 37 0;
#X connect 38 0 39 0;
#X connect 40 0 34 2;
#X connect 41 0 34 0;
#X connect 42 0 34 8;
#X connect 43 0 34 7;
#X connect 44 0 34 9;
#X connect 45 0 34 10;
#X connect 46 0 34 11;
#X connect 47 0 34 12;
#X connect 48 0 34 15;
#X connect 49 0 34 20;
#X connect 50 0 34 18;
#X connect 51 0 34 21;
#X connect 52 0 34 3;
#X connect 53 0 34 4;
#X connect 54 0 34 5;
#X connect 55 0 34 6;
#X connect 56 0 34 19;
#X connect 57 0 34 1;
#X connect 58 0 34 13;
#X connect 59 0 34 14;
#X connect 60 0 34 16;
#X connect 61 0 34 17;
