#N canvas 827 239 734 565 12;
#X obj 729 411 osc~ 220;
#X obj 833 411 phasor~ 220;
#X obj 757 565 tgl 25 0 empty empty empty 0 -10 0 10 #191919 #e1e1e1 #e1e1e1 0 1;
#X obj 833 609 *~;
#X obj 833 451 -~ 0.5;
#X obj 833 490 *~ 0.5;
#X obj 729 609 *~;
#X obj 877 565 tgl 25 0 empty empty empty 0 -10 0 10 #191919 #e1e1e1 #e1e1e1 0 1;
#X obj 667 63 inlet;
#X obj 729 751 outlet~;
#X obj 472 294 inlet;
#X obj 729 686 *~;
#X obj 667 102 unpack f f;
#X obj 1033 569 line~;
#X msg 1033 303 \$1 50;
#X obj 1033 229 / 127;
#X obj 894 479 loadbang;
#X obj 764 229 inlet;
#X obj 764 263 * 12;
#X obj 924 229 inlet;
#X obj 812 350 r phase_init;
#X obj 617 271 line~;
#X obj 729 375 mtof~;
#X obj 729 336 +~ 0;
#X obj 729 303 +~ 0;
#X obj 858 112 inlet;
#X obj 746 198 + 0;
#X obj 746 153 t b f;
#X obj 617 183 spigot;
#X obj 640 139 tgl 25 0 empty empty empty 17 7 0 10 #191919 #e1e1e1 #e1e1e1 0 1;
#X obj 987 121 inlet;
#X obj 617 210 pack f f f;
#X msg 617 240 \$2 \, \$1 \$3;
#X connect 0 0 6 0;
#X connect 1 0 4 0;
#X connect 2 0 6 1;
#X connect 3 0 11 0;
#X connect 4 0 5 0;
#X connect 5 0 3 0;
#X connect 6 0 11 0;
#X connect 7 0 3 1;
#X connect 8 0 12 0;
#X connect 10 0 2 0;
#X connect 10 0 7 0;
#X connect 11 0 9 0;
#X connect 12 0 26 0;
#X connect 12 0 28 0;
#X connect 12 1 29 0;
#X connect 12 1 15 0;
#X connect 13 0 11 1;
#X connect 14 0 13 0;
#X connect 15 0 14 0;
#X connect 16 0 7 0;
#X connect 17 0 18 0;
#X connect 18 0 24 1;
#X connect 19 0 23 1;
#X connect 20 0 1 1;
#X connect 20 0 0 1;
#X connect 21 0 24 0;
#X connect 22 0 0 0;
#X connect 22 0 1 0;
#X connect 23 0 22 0;
#X connect 24 0 23 0;
#X connect 25 0 27 0;
#X connect 26 0 31 1;
#X connect 27 0 26 0;
#X connect 27 1 26 1;
#X connect 28 0 31 0;
#X connect 29 0 28 1;
#X connect 30 0 31 2;
#X connect 31 0 32 0;
#X connect 32 0 21 0;
