#N canvas 827 239 734 565 12;
#X obj 729 432 osc~ 220;
#X obj 833 411 phasor~ 220;
#X obj 757 565 tgl 25 0 empty empty empty 0 -10 0 10 #191919 #e1e1e1 #e1e1e1 0 1;
#X obj 833 609 *~;
#X obj 833 451 -~ 0.5;
#X obj 833 490 *~ 0.5;
#X obj 729 609 *~;
#X obj 877 565 tgl 25 0 empty empty empty 0 -10 0 10 #191919 #e1e1e1 #e1e1e1 0 1;
#X obj 667 63 inlet;
#X obj 729 751 outlet~;
#X obj 514 419 inlet;
#X obj 729 686 *~;
#X obj 667 102 unpack f f;
#X obj 1098 628 line~;
#X obj 1045 223 / 127;
#X obj 877 522 loadbang;
#X obj 764 229 inlet;
#X obj 764 263 * 12;
#X obj 924 229 inlet;
#X obj 812 350 r phase_init;
#X obj 568 259 line~;
#X obj 729 396 mtof~;
#X obj 729 336 +~ 0;
#X obj 729 303 +~ 0;
#X obj 858 112 inlet;
#X obj 746 198 + 0;
#X obj 746 153 t b f;
#X obj 568 171 spigot;
#X obj 591 127 tgl 25 0 empty empty empty 17 7 0 10 #191919 #e1e1e1 #e1e1e1 0 1;
#X obj 987 121 inlet;
#X obj 568 198 pack f f f;
#X msg 568 228 \$2 \, \$1 \$3;
#X obj 1130 127 inlet~;
#X obj 1130 171 *~ 24;
#X obj 729 365 +~;
#X obj 1130 223 *~ 0;
#X obj 1205 183 inlet;
#X obj 1252 183 inlet;
#X obj 1321 183 inlet;
#X msg 1194 451 \$1 \$2;
#X obj 1194 396 pack f f;
#X obj 1252 223 * 15000;
#X obj 1045 294 route 0;
#X floatatom 1098 345 5 0 0 0 - - - 12;
#X obj 1045 451 pack f f;
#X obj 1321 223 * 15000;
#X msg 1045 511 \$1 \$2;
#X msg 1046 383 0;
#X connect 0 0 6 0;
#X connect 1 0 4 0;
#X connect 2 0 6 1;
#X connect 3 0 11 0;
#X connect 4 0 5 0;
#X connect 5 0 3 0;
#X connect 6 0 11 0;
#X connect 7 0 3 1;
#X connect 8 0 12 0;
#X connect 10 0 2 0;
#X connect 10 0 7 0;
#X connect 11 0 9 0;
#X connect 12 0 25 0;
#X connect 12 0 27 0;
#X connect 12 1 28 0;
#X connect 12 1 14 0;
#X connect 13 0 11 1;
#X connect 14 0 42 0;
#X connect 15 0 7 0;
#X connect 16 0 17 0;
#X connect 17 0 23 1;
#X connect 18 0 22 1;
#X connect 19 0 1 1;
#X connect 19 0 0 1;
#X connect 20 0 23 0;
#X connect 21 0 1 0;
#X connect 21 0 0 0;
#X connect 22 0 34 0;
#X connect 23 0 22 0;
#X connect 24 0 26 0;
#X connect 25 0 30 1;
#X connect 26 0 25 0;
#X connect 26 1 25 1;
#X connect 27 0 30 0;
#X connect 28 0 27 1;
#X connect 29 0 30 2;
#X connect 30 0 31 0;
#X connect 31 0 20 0;
#X connect 32 0 33 0;
#X connect 33 0 35 0;
#X connect 34 0 21 0;
#X connect 35 0 34 1;
#X connect 36 0 35 1;
#X connect 37 0 41 0;
#X connect 38 0 45 0;
#X connect 39 0 13 0;
#X connect 40 0 39 0;
#X connect 41 0 40 1;
#X connect 42 0 47 0;
#X connect 42 1 43 0;
#X connect 43 0 40 0;
#X connect 44 0 46 0;
#X connect 45 0 44 1;
#X connect 46 0 13 0;
#X connect 47 0 44 0;
